<svg xmlns="http://www.w3.org/2000/svg" viewBox="0 0 720 300" role="img" aria-label="A three by three kernel sliding over a six by six input to produce one output pixel, with the multiply-accumulate count worked out beneath"><style>text{fill:#14181A}svg{color:#14181A;font-family:"IBM Plex Sans Condensed",Arial,sans-serif}.acc{stroke:#A6512A;fill:none}.accf{fill:#A6512A}.tl{stroke:#255C61;fill:none}.tlf{fill:#255C61}.ax{stroke:currentColor;stroke-width:1.1;fill:none}.grid{stroke:currentColor;stroke-width:.6;opacity:.22;fill:none}.ser{fill:none;stroke:currentColor;stroke-width:1.8}.lbl{font-family:"IBM Plex Mono",monospace;font-size:10.5px;fill:currentColor;opacity:.75}.lblb{font-family:"IBM Plex Sans Condensed",Arial,sans-serif;font-size:12px;font-weight:600;fill:currentColor}.fillsoft{fill:currentColor;opacity:.14}text.accf{fill:#A6512A;opacity:1}text.tlf{fill:#255C61;opacity:1}</style>
  <rect x="40.0" y="60.0" width="26.0" height="26.0" fill="none" stroke="currentColor" stroke-width="0.9"/>
  <rect x="66.0" y="60.0" width="26.0" height="26.0" fill="none" stroke="currentColor" stroke-width="0.9"/>
  <rect x="92.0" y="60.0" width="26.0" height="26.0" fill="none" stroke="currentColor" stroke-width="0.9"/>
  <rect x="118.0" y="60.0" width="26.0" height="26.0" fill="none" stroke="currentColor" stroke-width="0.9"/>
  <rect x="144.0" y="60.0" width="26.0" height="26.0" fill="none" stroke="currentColor" stroke-width="0.9"/>
  <rect x="170.0" y="60.0" width="26.0" height="26.0" fill="none" stroke="currentColor" stroke-width="0.9"/>
  <rect x="40.0" y="86.0" width="26.0" height="26.0" fill="none" stroke="currentColor" stroke-width="0.9"/>
  <rect x="66.0" y="86.0" width="26.0" height="26.0" class="accf" stroke="currentColor" stroke-width="0.9" opacity="0.30"/>
  <rect x="92.0" y="86.0" width="26.0" height="26.0" class="accf" stroke="currentColor" stroke-width="0.9" opacity="0.30"/>
  <rect x="118.0" y="86.0" width="26.0" height="26.0" class="accf" stroke="currentColor" stroke-width="0.9" opacity="0.30"/>
  <rect x="144.0" y="86.0" width="26.0" height="26.0" fill="none" stroke="currentColor" stroke-width="0.9"/>
  <rect x="170.0" y="86.0" width="26.0" height="26.0" fill="none" stroke="currentColor" stroke-width="0.9"/>
  <rect x="40.0" y="112.0" width="26.0" height="26.0" fill="none" stroke="currentColor" stroke-width="0.9"/>
  <rect x="66.0" y="112.0" width="26.0" height="26.0" class="accf" stroke="currentColor" stroke-width="0.9" opacity="0.30"/>
  <rect x="92.0" y="112.0" width="26.0" height="26.0" class="accf" stroke="currentColor" stroke-width="0.9" opacity="0.30"/>
  <rect x="118.0" y="112.0" width="26.0" height="26.0" class="accf" stroke="currentColor" stroke-width="0.9" opacity="0.30"/>
  <rect x="144.0" y="112.0" width="26.0" height="26.0" fill="none" stroke="currentColor" stroke-width="0.9"/>
  <rect x="170.0" y="112.0" width="26.0" height="26.0" fill="none" stroke="currentColor" stroke-width="0.9"/>
  <rect x="40.0" y="138.0" width="26.0" height="26.0" fill="none" stroke="currentColor" stroke-width="0.9"/>
  <rect x="66.0" y="138.0" width="26.0" height="26.0" class="accf" stroke="currentColor" stroke-width="0.9" opacity="0.30"/>
  <rect x="92.0" y="138.0" width="26.0" height="26.0" class="accf" stroke="currentColor" stroke-width="0.9" opacity="0.30"/>
  <rect x="118.0" y="138.0" width="26.0" height="26.0" class="accf" stroke="currentColor" stroke-width="0.9" opacity="0.30"/>
  <rect x="144.0" y="138.0" width="26.0" height="26.0" fill="none" stroke="currentColor" stroke-width="0.9"/>
  <rect x="170.0" y="138.0" width="26.0" height="26.0" fill="none" stroke="currentColor" stroke-width="0.9"/>
  <rect x="40.0" y="164.0" width="26.0" height="26.0" fill="none" stroke="currentColor" stroke-width="0.9"/>
  <rect x="66.0" y="164.0" width="26.0" height="26.0" fill="none" stroke="currentColor" stroke-width="0.9"/>
  <rect x="92.0" y="164.0" width="26.0" height="26.0" fill="none" stroke="currentColor" stroke-width="0.9"/>
  <rect x="118.0" y="164.0" width="26.0" height="26.0" fill="none" stroke="currentColor" stroke-width="0.9"/>
  <rect x="144.0" y="164.0" width="26.0" height="26.0" fill="none" stroke="currentColor" stroke-width="0.9"/>
  <rect x="170.0" y="164.0" width="26.0" height="26.0" fill="none" stroke="currentColor" stroke-width="0.9"/>
  <rect x="40.0" y="190.0" width="26.0" height="26.0" fill="none" stroke="currentColor" stroke-width="0.9"/>
  <rect x="66.0" y="190.0" width="26.0" height="26.0" fill="none" stroke="currentColor" stroke-width="0.9"/>
  <rect x="92.0" y="190.0" width="26.0" height="26.0" fill="none" stroke="currentColor" stroke-width="0.9"/>
  <rect x="118.0" y="190.0" width="26.0" height="26.0" fill="none" stroke="currentColor" stroke-width="0.9"/>
  <rect x="144.0" y="190.0" width="26.0" height="26.0" fill="none" stroke="currentColor" stroke-width="0.9"/>
  <rect x="170.0" y="190.0" width="26.0" height="26.0" fill="none" stroke="currentColor" stroke-width="0.9"/>
  <rect x="66.0" y="86.0" width="78.0" height="78.0" fill="none" stroke="var(--copper)" stroke-width="2.4"/>
  <text x="40.0" y="48.0" class="lblb">input 6×6×C_in</text>
  <text x="40.0" y="236.0" class="lbl">each window: k²·C_in</text>
  <text x="40.0" y="252.0" class="lbl">multiply–accumulates</text>
  <defs><marker id="arF" viewBox="0 0 10 10" refX="9" refY="5" markerWidth="7" markerHeight="7" orient="auto-start-reverse"><path d="M0 0 L10 5 L0 10 z" fill="currentColor"/></marker></defs>
  <line x1="214.0" y1="138.0" x2="258.0" y2="138.0" class="ax" marker-end="url(#arF)"/>
  <rect x="268.0" y="86.0" width="24.0" height="24.0" fill="none" stroke="currentColor" stroke-width="0.9"/>
  <rect x="292.0" y="86.0" width="24.0" height="24.0" fill="none" stroke="currentColor" stroke-width="0.9"/>
  <rect x="316.0" y="86.0" width="24.0" height="24.0" fill="none" stroke="currentColor" stroke-width="0.9"/>
  <rect x="268.0" y="110.0" width="24.0" height="24.0" fill="none" stroke="currentColor" stroke-width="0.9"/>
  <rect x="292.0" y="110.0" width="24.0" height="24.0" fill="none" stroke="currentColor" stroke-width="0.9"/>
  <rect x="316.0" y="110.0" width="24.0" height="24.0" fill="none" stroke="currentColor" stroke-width="0.9"/>
  <rect x="268.0" y="134.0" width="24.0" height="24.0" fill="none" stroke="currentColor" stroke-width="0.9"/>
  <rect x="292.0" y="134.0" width="24.0" height="24.0" fill="none" stroke="currentColor" stroke-width="0.9"/>
  <rect x="316.0" y="134.0" width="24.0" height="24.0" fill="none" stroke="currentColor" stroke-width="0.9"/>
  <rect x="268.0" y="86.0" width="72.0" height="72.0" fill="none" stroke="var(--copper)" stroke-width="2.4"/>
  <text x="268.0" y="74.0" class="lblb">kernel k=3</text>
  <text x="268.0" y="178.0" class="lbl">one kernel per</text>
  <text x="268.0" y="194.0" class="lbl">output channel</text>
  <line x1="352.0" y1="122.0" x2="396.0" y2="122.0" class="ax" marker-end="url(#arF)"/>
  <rect x="406.0" y="74.0" width="26.0" height="26.0" fill="none" stroke="currentColor" stroke-width="0.9"/>
  <rect x="432.0" y="74.0" width="26.0" height="26.0" fill="none" stroke="currentColor" stroke-width="0.9"/>
  <rect x="458.0" y="74.0" width="26.0" height="26.0" fill="none" stroke="currentColor" stroke-width="0.9"/>
  <rect x="484.0" y="74.0" width="26.0" height="26.0" fill="none" stroke="currentColor" stroke-width="0.9"/>
  <rect x="406.0" y="100.0" width="26.0" height="26.0" fill="none" stroke="currentColor" stroke-width="0.9"/>
  <rect x="432.0" y="100.0" width="26.0" height="26.0" fill="none" stroke="currentColor" stroke-width="0.9"/>
  <rect x="458.0" y="100.0" width="26.0" height="26.0" fill="none" stroke="currentColor" stroke-width="0.9"/>
  <rect x="484.0" y="100.0" width="26.0" height="26.0" fill="none" stroke="currentColor" stroke-width="0.9"/>
  <rect x="406.0" y="126.0" width="26.0" height="26.0" fill="none" stroke="currentColor" stroke-width="0.9"/>
  <rect x="432.0" y="126.0" width="26.0" height="26.0" fill="none" stroke="currentColor" stroke-width="0.9"/>
  <rect x="458.0" y="126.0" width="26.0" height="26.0" fill="none" stroke="currentColor" stroke-width="0.9"/>
  <rect x="484.0" y="126.0" width="26.0" height="26.0" fill="none" stroke="currentColor" stroke-width="0.9"/>
  <rect x="406.0" y="152.0" width="26.0" height="26.0" fill="none" stroke="currentColor" stroke-width="0.9"/>
  <rect x="432.0" y="152.0" width="26.0" height="26.0" fill="none" stroke="currentColor" stroke-width="0.9"/>
  <rect x="458.0" y="152.0" width="26.0" height="26.0" fill="none" stroke="currentColor" stroke-width="0.9"/>
  <rect x="484.0" y="152.0" width="26.0" height="26.0" fill="none" stroke="currentColor" stroke-width="0.9"/>
  <rect x="406.0" y="74.0" width="26.0" height="26.0" class="accf" stroke="currentColor" stroke-width="0.9" opacity="0.35"/>
  <text x="406.0" y="62.0" class="lblb">output 4×4×C_out</text>
  <text x="406.0" y="200.0" class="lbl">16 windows × C_out</text>
  <line x1="536.0" y1="122.0" x2="556.0" y2="122.0" class="grid"/>
  <text x="560.0" y="92.0" class="lblb">MACs =</text>
  <text x="556.0" y="112.0" class="lblb" fill="var(--copper)">H·W·k²·C_in·C_out</text>
  <text x="560.0" y="140.0" class="lblb">params =</text>
  <text x="560.0" y="160.0" class="lbl">k² · C_in · C_out</text>
  <text x="560.0" y="188.0" class="lblb">activations =</text>
  <text x="560.0" y="208.0" class="lbl">H · W · C_out</text>
  <text x="40.0" y="282.0" class="lblb">Every convolution is this picture with different numbers.</text>
</svg>