<svg xmlns="http://www.w3.org/2000/svg" viewBox="0 0 720 330" role="img" aria-label="A noisy step signal with impulsive spikes filtered by a nine-tap moving average, which smears the spikes and the edge, and by a nine-tap median filter, which removes the spikes and keeps the edge sharp"><style>text{fill:#14181A}svg{color:#14181A;font-family:"IBM Plex Sans Condensed",Arial,sans-serif}.acc{stroke:#A6512A;fill:none}.accf{fill:#A6512A}.tl{stroke:#255C61;fill:none}.tlf{fill:#255C61}.ax{stroke:currentColor;stroke-width:1.1;fill:none}.grid{stroke:currentColor;stroke-width:.6;opacity:.22;fill:none}.ser{fill:none;stroke:currentColor;stroke-width:1.8}.lbl{font-family:"IBM Plex Mono",monospace;font-size:10.5px;fill:currentColor;opacity:.75}.lblb{font-family:"IBM Plex Sans Condensed",Arial,sans-serif;font-size:12px;font-weight:600;fill:currentColor}.fillsoft{fill:currentColor;opacity:.14}text.accf{fill:#A6512A;opacity:1}text.tlf{fill:#255C61;opacity:1}</style>
  <line x1="40.0" y1="100.9" x2="700.0" y2="100.9" class="grid"/>
  <line x1="40.0" y1="76.4" x2="700.0" y2="76.4" class="grid"/>
  <text x="34.0" y="104.9" class="lbl" text-anchor="end">0</text>
  <text x="34.0" y="80.4" class="lbl" text-anchor="end">1</text>
  <path d="M40.0 100.9 L43.3 100.3 L46.6 101.4 L49.9 102.6 L53.2 101.8 L56.5 102.8 L59.8 100.8 L63.1 98.3 L66.4 101.9 L69.7 102.1 L73.0 99.9 L76.3 100.2 L79.6 100.7 L82.9 102.7 L86.2 100.9 L89.5 99.5 L92.8 103.5 L96.1 101.8 L99.4 104.6 L102.7 103.4 L106.0 104.5 L109.3 101.3 L112.6 103.4 L115.9 100.4 L119.2 100.6 L122.5 101.3 L125.8 105.8 L129.1 101.9 L132.4 101.0 L135.7 100.7 L139.0 64.8 L142.3 62.7 L145.6 102.8 L148.9 102.5 L152.2 98.8 L155.5 102.5 L158.8 101.0 L162.1 99.2 L165.4 102.0 L168.7 101.1 L172.0 100.7 L175.3 100.8 L178.6 103.3 L181.9 100.7 L185.2 98.2 L188.5 103.9 L191.8 99.2 L195.1 100.7 L198.4 102.1 L201.7 97.0 L205.0 99.4 L208.3 103.2 L211.6 100.7 L214.9 99.8 L218.2 101.3 L221.5 99.6 L224.8 101.0 L228.1 99.6 L231.4 98.1 L234.7 102.2 L238.0 100.5 L241.3 101.8 L244.6 56.6 L247.9 103.2 L251.2 102.0 L254.5 101.3 L257.8 99.1 L261.1 98.6 L264.4 103.5 L267.7 102.4 L271.0 99.6 L274.3 104.8 L277.6 101.8 L280.9 101.1 L284.2 98.4 L287.5 99.5 L290.8 101.5 L294.1 101.6 L297.4 101.4 L300.7 97.9 L304.0 101.7 L307.3 101.5 L310.6 100.2 L313.9 101.1 L317.2 101.3 L320.5 103.1 L323.8 100.9 L327.1 101.8 L330.4 98.6 L333.7 99.6 L337.0 76.5 L340.3 75.1 L343.6 77.1 L346.9 74.4 L350.2 76.5 L353.5 75.3 L356.8 79.0 L360.1 75.8 L363.4 79.7 L366.7 80.4 L370.0 77.0 L373.3 78.2 L376.6 76.1 L379.9 72.1 L383.2 78.1 L386.5 77.7 L389.8 76.0 L393.1 75.5 L396.4 76.8 L399.7 76.8 L403.0 75.1 L406.3 75.4 L409.6 78.5 L412.9 76.6 L416.2 76.4 L419.5 78.5 L422.8 75.9 L426.1 78.1 L429.4 74.5 L432.7 76.1 L436.0 76.3 L439.3 77.6 L442.6 76.7 L445.9 80.4 L449.2 78.7 L452.5 75.7 L455.8 80.6 L459.1 74.8 L462.4 114.1 L465.7 75.0 L469.0 78.1 L472.3 74.9 L475.6 76.2 L478.9 79.4 L482.2 74.0 L485.5 73.6 L488.8 76.6 L492.1 77.0 L495.4 76.8 L498.7 78.4 L502.0 74.3 L505.3 77.5 L508.6 76.5 L511.9 78.0 L515.2 77.7 L518.5 78.9 L521.8 74.0 L525.1 76.7 L528.4 74.6 L531.7 76.4 L535.0 77.8 L538.3 77.1 L541.6 77.5 L544.9 76.4 L548.2 77.2 L551.5 77.0 L554.8 79.1 L558.1 78.0 L561.4 73.2 L564.7 77.8 L568.0 112.7 L571.3 36.7 L574.6 73.7 L577.9 79.3 L581.2 76.9 L584.5 77.7 L587.8 79.9 L591.1 75.0 L594.4 76.5 L597.7 76.3 L601.0 77.9 L604.3 75.6 L607.6 77.5 L610.9 76.7 L614.2 78.6 L617.5 78.8 L620.8 73.8 L624.1 77.4 L627.4 75.9 L630.7 76.5 L634.0 77.3 L637.3 77.4 L640.6 75.2 L643.9 77.0 L647.2 76.7 L650.5 76.4 L653.8 74.1 L657.1 75.1 L660.4 75.7 L663.7 77.5 L667.0 79.1 L670.3 74.6 L673.6 74.6 L676.9 76.7 L680.2 75.4 L683.5 74.9 L686.8 74.8 L690.1 74.6 L693.4 77.3 L696.7 73.5" class="ser" opacity="0.35" stroke-width="1.1"/>
  <path d="M40.0 101.2 L43.3 101.4 L46.6 101.4 L49.9 101.1 L53.2 101.2 L56.5 101.3 L59.8 101.3 L63.1 101.2 L66.4 100.9 L69.7 101.0 L73.0 100.8 L76.3 100.7 L79.6 101.3 L82.9 101.3 L86.2 101.5 L89.5 101.9 L92.8 102.4 L96.1 102.5 L99.4 102.6 L102.7 102.5 L106.0 102.6 L109.3 102.4 L112.6 102.8 L115.9 102.5 L119.2 102.2 L122.5 101.8 L125.8 97.7 L129.1 93.2 L132.4 93.5 L135.7 93.7 L139.0 93.4 L142.3 93.1 L145.6 93.0 L148.9 92.8 L152.2 92.9 L155.5 96.9 L158.8 101.2 L162.1 100.9 L165.4 101.0 L168.7 101.2 L172.0 100.8 L175.3 101.1 L178.6 101.1 L181.9 101.0 L185.2 101.1 L188.5 100.7 L191.8 100.5 L195.1 100.5 L198.4 100.5 L201.7 100.7 L205.0 100.4 L208.3 100.4 L211.6 100.5 L214.9 100.2 L218.2 100.3 L221.5 100.6 L224.8 100.3 L228.1 100.4 L231.4 95.6 L234.7 95.8 L238.0 96.1 L241.3 96.1 L244.6 96.1 L247.9 96.2 L251.2 96.3 L254.5 96.5 L257.8 96.3 L261.1 101.6 L264.4 101.5 L267.7 101.4 L271.0 101.0 L274.3 101.1 L277.6 101.4 L280.9 101.2 L284.2 101.1 L287.5 100.9 L290.8 100.6 L294.1 100.5 L297.4 100.4 L300.7 100.7 L304.0 100.9 L307.3 101.1 L310.6 101.0 L313.9 101.1 L317.2 101.1 L320.5 100.9 L323.8 98.1 L327.1 95.3 L330.4 92.7 L333.7 89.7 L337.0 86.7 L340.3 83.9 L343.6 81.3 L346.9 78.8 L350.2 76.6 L353.5 77.0 L356.8 77.2 L360.1 77.4 L363.4 77.6 L366.7 77.1 L370.0 77.4 L373.3 77.2 L376.6 77.3 L379.9 76.8 L383.2 76.4 L386.5 76.4 L389.8 76.0 L393.1 75.9 L396.4 76.7 L399.7 76.5 L403.0 76.3 L406.3 76.6 L409.6 76.7 L412.9 76.8 L416.2 76.6 L419.5 76.7 L422.8 76.8 L426.1 76.7 L429.4 76.7 L432.7 77.1 L436.0 77.1 L439.3 77.1 L442.6 77.4 L445.9 77.4 L449.2 81.6 L452.5 81.5 L455.8 81.6 L459.1 81.4 L462.4 80.9 L465.7 81.0 L469.0 80.8 L472.3 80.0 L475.6 80.2 L478.9 76.1 L482.2 76.3 L485.5 76.3 L488.8 76.2 L492.1 76.4 L495.4 76.1 L498.7 76.5 L502.0 77.0 L505.3 77.2 L508.6 76.9 L511.9 76.9 L515.2 76.5 L518.5 76.7 L521.8 76.7 L525.1 76.8 L528.4 76.7 L531.7 76.6 L535.0 76.4 L538.3 76.8 L541.6 77.0 L544.9 77.4 L548.2 77.0 L551.5 77.0 L554.8 81.0 L558.1 76.5 L561.4 76.2 L564.7 76.4 L568.0 76.4 L571.3 76.2 L574.6 76.4 L577.9 76.6 L581.2 76.5 L584.5 72.4 L587.8 77.0 L591.1 77.2 L594.4 77.0 L597.7 77.0 L601.0 77.1 L604.3 77.0 L607.6 76.9 L610.9 77.0 L614.2 76.9 L617.5 76.8 L620.8 77.0 L624.1 77.0 L627.4 76.8 L630.7 76.6 L634.0 76.4 L637.3 76.7 L640.6 76.3 L643.9 76.2 L647.2 76.1 L650.5 76.1 L653.8 76.3 L657.1 76.3 L660.4 76.0 L663.7 76.0 L667.0 75.9 L670.3 76.0 L673.6 75.9 L676.9 75.8 L680.2 75.8 L683.5 75.2 L686.8 75.0 L690.1 74.9 L693.4 74.6 L696.7 74.3" class="acc" stroke-width="2.2"/>
  <text x="40.0" y="22.0" class="lblb">moving average, 9 taps — linear, cheap, smears spikes and edges</text>
  <line x1="40.0" y1="250.9" x2="700.0" y2="250.9" class="grid"/>
  <line x1="40.0" y1="226.4" x2="700.0" y2="226.4" class="grid"/>
  <text x="34.0" y="254.9" class="lbl" text-anchor="end">0</text>
  <text x="34.0" y="230.4" class="lbl" text-anchor="end">1</text>
  <path d="M40.0 250.9 L43.3 250.3 L46.6 251.4 L49.9 252.6 L53.2 251.8 L56.5 252.8 L59.8 250.8 L63.1 248.3 L66.4 251.9 L69.7 252.1 L73.0 249.9 L76.3 250.2 L79.6 250.7 L82.9 252.7 L86.2 250.9 L89.5 249.5 L92.8 253.5 L96.1 251.8 L99.4 254.6 L102.7 253.4 L106.0 254.5 L109.3 251.3 L112.6 253.4 L115.9 250.4 L119.2 250.6 L122.5 251.3 L125.8 255.8 L129.1 251.9 L132.4 251.0 L135.7 250.7 L139.0 214.8 L142.3 212.7 L145.6 252.8 L148.9 252.5 L152.2 248.8 L155.5 252.5 L158.8 251.0 L162.1 249.2 L165.4 252.0 L168.7 251.1 L172.0 250.7 L175.3 250.8 L178.6 253.3 L181.9 250.7 L185.2 248.2 L188.5 253.9 L191.8 249.2 L195.1 250.7 L198.4 252.1 L201.7 247.0 L205.0 249.4 L208.3 253.2 L211.6 250.7 L214.9 249.8 L218.2 251.3 L221.5 249.6 L224.8 251.0 L228.1 249.6 L231.4 248.1 L234.7 252.2 L238.0 250.5 L241.3 251.8 L244.6 206.6 L247.9 253.2 L251.2 252.0 L254.5 251.3 L257.8 249.1 L261.1 248.6 L264.4 253.5 L267.7 252.4 L271.0 249.6 L274.3 254.8 L277.6 251.8 L280.9 251.1 L284.2 248.4 L287.5 249.5 L290.8 251.5 L294.1 251.6 L297.4 251.4 L300.7 247.9 L304.0 251.7 L307.3 251.5 L310.6 250.2 L313.9 251.1 L317.2 251.3 L320.5 253.1 L323.8 250.9 L327.1 251.8 L330.4 248.6 L333.7 249.6 L337.0 226.5 L340.3 225.1 L343.6 227.1 L346.9 224.4 L350.2 226.5 L353.5 225.3 L356.8 229.0 L360.1 225.8 L363.4 229.7 L366.7 230.4 L370.0 227.0 L373.3 228.2 L376.6 226.1 L379.9 222.1 L383.2 228.1 L386.5 227.7 L389.8 226.0 L393.1 225.5 L396.4 226.8 L399.7 226.8 L403.0 225.1 L406.3 225.4 L409.6 228.5 L412.9 226.6 L416.2 226.4 L419.5 228.5 L422.8 225.9 L426.1 228.1 L429.4 224.5 L432.7 226.1 L436.0 226.3 L439.3 227.6 L442.6 226.7 L445.9 230.4 L449.2 228.7 L452.5 225.7 L455.8 230.6 L459.1 224.8 L462.4 264.1 L465.7 225.0 L469.0 228.1 L472.3 224.9 L475.6 226.2 L478.9 229.4 L482.2 224.0 L485.5 223.6 L488.8 226.6 L492.1 227.0 L495.4 226.8 L498.7 228.4 L502.0 224.3 L505.3 227.5 L508.6 226.5 L511.9 228.0 L515.2 227.7 L518.5 228.9 L521.8 224.0 L525.1 226.7 L528.4 224.6 L531.7 226.4 L535.0 227.8 L538.3 227.1 L541.6 227.5 L544.9 226.4 L548.2 227.2 L551.5 227.0 L554.8 229.1 L558.1 228.0 L561.4 223.2 L564.7 227.8 L568.0 262.7 L571.3 186.7 L574.6 223.7 L577.9 229.3 L581.2 226.9 L584.5 227.7 L587.8 229.9 L591.1 225.0 L594.4 226.5 L597.7 226.3 L601.0 227.9 L604.3 225.6 L607.6 227.5 L610.9 226.7 L614.2 228.6 L617.5 228.8 L620.8 223.8 L624.1 227.4 L627.4 225.9 L630.7 226.5 L634.0 227.3 L637.3 227.4 L640.6 225.2 L643.9 227.0 L647.2 226.7 L650.5 226.4 L653.8 224.1 L657.1 225.1 L660.4 225.7 L663.7 227.5 L667.0 229.1 L670.3 224.6 L673.6 224.6 L676.9 226.7 L680.2 225.4 L683.5 224.9 L686.8 224.8 L690.1 224.6 L693.4 227.3 L696.7 223.5" class="ser" opacity="0.35" stroke-width="1.1"/>
  <path d="M40.0 250.9 L43.3 250.9 L46.6 250.9 L49.9 250.9 L53.2 251.4 L56.5 251.8 L59.8 251.8 L63.1 251.8 L66.4 250.8 L69.7 250.8 L73.0 250.8 L76.3 250.7 L79.6 250.9 L82.9 250.9 L86.2 250.9 L89.5 251.8 L92.8 252.7 L96.1 252.7 L99.4 253.4 L102.7 253.4 L106.0 253.4 L109.3 251.8 L112.6 253.4 L115.9 251.9 L119.2 251.3 L122.5 251.3 L125.8 251.0 L129.1 250.7 L132.4 251.0 L135.7 251.3 L139.0 251.0 L142.3 251.0 L145.6 251.0 L148.9 250.7 L152.2 251.0 L155.5 251.1 L158.8 251.1 L162.1 251.0 L165.4 251.0 L168.7 251.0 L172.0 250.8 L175.3 250.8 L178.6 250.8 L181.9 250.7 L185.2 250.7 L188.5 250.7 L191.8 250.7 L195.1 250.7 L198.4 250.7 L201.7 250.7 L205.0 250.7 L208.3 250.7 L211.6 250.7 L214.9 249.8 L218.2 249.8 L221.5 250.7 L224.8 250.5 L228.1 250.5 L231.4 250.5 L234.7 250.5 L238.0 251.0 L241.3 251.3 L244.6 251.3 L247.9 251.3 L251.2 251.3 L254.5 251.8 L257.8 251.3 L261.1 252.0 L264.4 251.8 L267.7 251.3 L271.0 251.1 L274.3 251.1 L277.6 251.5 L280.9 251.5 L284.2 251.4 L287.5 251.4 L290.8 251.4 L294.1 251.4 L297.4 251.4 L300.7 251.4 L304.0 251.4 L307.3 251.4 L310.6 251.3 L313.9 251.3 L317.2 251.3 L320.5 251.1 L323.8 250.9 L327.1 250.9 L330.4 249.6 L333.7 248.6 L337.0 227.1 L340.3 226.5 L343.6 226.5 L346.9 226.5 L350.2 226.5 L353.5 226.5 L356.8 227.0 L360.1 227.0 L363.4 227.0 L366.7 227.0 L370.0 228.1 L373.3 227.7 L376.6 227.7 L379.9 227.0 L383.2 226.8 L386.5 226.8 L389.8 226.1 L393.1 226.0 L396.4 226.8 L399.7 226.6 L403.0 226.4 L406.3 226.6 L409.6 226.6 L412.9 226.6 L416.2 226.4 L419.5 226.4 L422.8 226.4 L426.1 226.4 L429.4 226.4 L432.7 226.7 L436.0 226.7 L439.3 226.7 L442.6 226.7 L445.9 226.7 L449.2 227.6 L452.5 227.6 L455.8 228.1 L459.1 228.1 L462.4 226.2 L465.7 226.2 L469.0 226.2 L472.3 225.0 L475.6 226.2 L478.9 226.2 L482.2 226.6 L485.5 226.6 L488.8 226.6 L492.1 226.8 L495.4 226.6 L498.7 226.8 L502.0 227.0 L505.3 227.5 L508.6 227.5 L511.9 227.5 L515.2 226.7 L518.5 226.7 L521.8 226.7 L525.1 227.1 L528.4 227.1 L531.7 226.7 L535.0 226.7 L538.3 227.0 L541.6 227.1 L544.9 227.2 L548.2 227.2 L551.5 227.2 L554.8 227.5 L558.1 227.2 L561.4 227.2 L564.7 227.8 L568.0 227.8 L571.3 227.7 L574.6 227.7 L577.9 227.7 L581.2 226.9 L584.5 226.5 L587.8 226.9 L591.1 226.9 L594.4 226.9 L597.7 226.7 L601.0 226.7 L604.3 226.7 L607.6 226.7 L610.9 227.4 L614.2 227.4 L617.5 226.7 L620.8 227.3 L624.1 227.3 L627.4 227.3 L630.7 227.0 L634.0 226.7 L637.3 226.7 L640.6 226.5 L643.9 226.5 L647.2 226.4 L650.5 226.4 L653.8 226.4 L657.1 226.4 L660.4 225.7 L663.7 225.7 L667.0 225.4 L670.3 225.4 L673.6 225.4 L676.9 224.9 L680.2 224.9 L683.5 224.8 L686.8 224.8 L690.1 224.8 L693.4 224.6 L696.7 223.5" class="tl" stroke-width="2.2"/>
  <text x="40.0" y="172.0" class="lblb">median, 9 taps — non-linear, removes spikes, keeps the edge</text>
  <text x="40.0" y="322.0" class="lbl">grey: raw samples (step + Gaussian noise + six impulsive spikes)</text>
</svg>