<svg xmlns="http://www.w3.org/2000/svg" viewBox="0 0 720 330" role="img" aria-label="Three features with very different ranges shown raw, after z-score standardisation, and after min-max scaling; one outlier compresses the min-max scaled feature into a narrow band"><style>text{fill:#14181A}svg{color:#14181A;font-family:"IBM Plex Sans Condensed",Arial,sans-serif}.acc{stroke:#A6512A;fill:none}.accf{fill:#A6512A}.tl{stroke:#255C61;fill:none}.tlf{fill:#255C61}.ax{stroke:currentColor;stroke-width:1.1;fill:none}.grid{stroke:currentColor;stroke-width:.6;opacity:.22;fill:none}.ser{fill:none;stroke:currentColor;stroke-width:1.8}.lbl{font-family:"IBM Plex Mono",monospace;font-size:10.5px;fill:currentColor;opacity:.75}.lblb{font-family:"IBM Plex Sans Condensed",Arial,sans-serif;font-size:12px;font-weight:600;fill:currentColor}.fillsoft{fill:currentColor;opacity:.14}text.accf{fill:#A6512A;opacity:1}text.tlf{fill:#255C61;opacity:1}</style>
  <text x="20.0" y="24.0" class="lblb">raw values</text>
  <line x1="30.0" y1="70.0" x2="220.0" y2="70.0" class="grid"/>
  <circle cx="54.8" cy="74.5" r="2.3" class="tlf" opacity="0.7"/>
  <circle cx="44.6" cy="70.8" r="2.3" class="tlf" opacity="0.7"/>
  <circle cx="51.2" cy="75.6" r="2.3" class="tlf" opacity="0.7"/>
  <circle cx="49.0" cy="64.0" r="2.3" class="tlf" opacity="0.7"/>
  <circle cx="49.3" cy="68.1" r="2.3" class="tlf" opacity="0.7"/>
  <circle cx="49.8" cy="73.2" r="2.3" class="tlf" opacity="0.7"/>
  <circle cx="45.8" cy="72.2" r="2.3" class="tlf" opacity="0.7"/>
  <circle cx="49.8" cy="70.7" r="2.3" class="tlf" opacity="0.7"/>
  <circle cx="48.3" cy="72.0" r="2.3" class="tlf" opacity="0.7"/>
  <circle cx="57.6" cy="74.5" r="2.3" class="tlf" opacity="0.7"/>
  <circle cx="50.8" cy="72.2" r="2.3" class="tlf" opacity="0.7"/>
  <circle cx="49.5" cy="70.6" r="2.3" class="tlf" opacity="0.7"/>
  <circle cx="49.6" cy="70.7" r="2.3" class="tlf" opacity="0.7"/>
  <circle cx="48.8" cy="72.0" r="2.3" class="tlf" opacity="0.7"/>
  <circle cx="47.9" cy="67.9" r="2.3" class="tlf" opacity="0.7"/>
  <circle cx="49.4" cy="72.0" r="2.3" class="tlf" opacity="0.7"/>
  <circle cx="51.3" cy="71.4" r="2.3" class="tlf" opacity="0.7"/>
  <circle cx="49.7" cy="73.4" r="2.3" class="tlf" opacity="0.7"/>
  <circle cx="52.4" cy="69.8" r="2.3" class="tlf" opacity="0.7"/>
  <circle cx="49.8" cy="64.3" r="2.3" class="tlf" opacity="0.7"/>
  <circle cx="50.3" cy="70.4" r="2.3" class="tlf" opacity="0.7"/>
  <circle cx="53.7" cy="74.3" r="2.3" class="tlf" opacity="0.7"/>
  <circle cx="51.5" cy="71.7" r="2.3" class="tlf" opacity="0.7"/>
  <circle cx="49.1" cy="71.7" r="2.3" class="tlf" opacity="0.7"/>
  <circle cx="49.9" cy="68.7" r="2.3" class="tlf" opacity="0.7"/>
  <circle cx="51.5" cy="68.3" r="2.3" class="tlf" opacity="0.7"/>
  <circle cx="54.6" cy="72.6" r="2.3" class="tlf" opacity="0.7"/>
  <circle cx="49.7" cy="64.9" r="2.3" class="tlf" opacity="0.7"/>
  <circle cx="49.7" cy="74.4" r="2.3" class="tlf" opacity="0.7"/>
  <circle cx="52.5" cy="74.5" r="2.3" class="tlf" opacity="0.7"/>
  <circle cx="48.3" cy="75.5" r="2.3" class="tlf" opacity="0.7"/>
  <circle cx="49.6" cy="65.6" r="2.3" class="tlf" opacity="0.7"/>
  <circle cx="52.2" cy="65.4" r="2.3" class="tlf" opacity="0.7"/>
  <circle cx="51.6" cy="74.7" r="2.3" class="tlf" opacity="0.7"/>
  <circle cx="50.5" cy="68.8" r="2.3" class="tlf" opacity="0.7"/>
  <circle cx="51.8" cy="67.2" r="2.3" class="tlf" opacity="0.7"/>
  <circle cx="44.0" cy="68.6" r="2.3" class="tlf" opacity="0.7"/>
  <circle cx="52.5" cy="71.9" r="2.3" class="tlf" opacity="0.7"/>
  <circle cx="48.1" cy="65.9" r="2.3" class="tlf" opacity="0.7"/>
  <circle cx="46.6" cy="69.8" r="2.3" class="tlf" opacity="0.7"/>
  <circle cx="50.9" cy="71.9" r="2.3" class="tlf" opacity="0.7"/>
  <circle cx="51.8" cy="72.6" r="2.3" class="tlf" opacity="0.7"/>
  <circle cx="49.3" cy="64.1" r="2.3" class="tlf" opacity="0.7"/>
  <circle cx="47.9" cy="73.7" r="2.3" class="tlf" opacity="0.7"/>
  <circle cx="50.3" cy="69.2" r="2.3" class="tlf" opacity="0.7"/>
  <circle cx="50.1" cy="69.2" r="2.3" class="tlf" opacity="0.7"/>
  <circle cx="53.4" cy="70.7" r="2.3" class="tlf" opacity="0.7"/>
  <circle cx="51.9" cy="67.4" r="2.3" class="tlf" opacity="0.7"/>
  <circle cx="50.7" cy="74.6" r="2.3" class="tlf" opacity="0.7"/>
  <circle cx="52.7" cy="66.5" r="2.3" class="tlf" opacity="0.7"/>
  <circle cx="49.8" cy="70.5" r="2.3" class="tlf" opacity="0.7"/>
  <circle cx="48.2" cy="66.0" r="2.3" class="tlf" opacity="0.7"/>
  <circle cx="51.6" cy="71.4" r="2.3" class="tlf" opacity="0.7"/>
  <circle cx="51.6" cy="74.8" r="2.3" class="tlf" opacity="0.7"/>
  <circle cx="49.8" cy="74.6" r="2.3" class="tlf" opacity="0.7"/>
  <circle cx="48.5" cy="65.6" r="2.3" class="tlf" opacity="0.7"/>
  <circle cx="50.8" cy="71.5" r="2.3" class="tlf" opacity="0.7"/>
  <circle cx="44.7" cy="74.7" r="2.3" class="tlf" opacity="0.7"/>
  <circle cx="51.8" cy="66.4" r="2.3" class="tlf" opacity="0.7"/>
  <circle cx="51.4" cy="69.0" r="2.3" class="tlf" opacity="0.7"/>
  <text x="30.0" y="56.0" class="lbl">RMS level, mV</text>
  <line x1="30.0" y1="140.0" x2="220.0" y2="140.0" class="grid"/>
  <circle cx="42.7" cy="142.6" r="2.3" class="tlf" opacity="0.7"/>
  <circle cx="42.7" cy="142.9" r="2.3" class="tlf" opacity="0.7"/>
  <circle cx="42.7" cy="139.4" r="2.3" class="tlf" opacity="0.7"/>
  <circle cx="42.7" cy="141.7" r="2.3" class="tlf" opacity="0.7"/>
  <circle cx="42.7" cy="142.0" r="2.3" class="tlf" opacity="0.7"/>
  <circle cx="42.7" cy="138.2" r="2.3" class="tlf" opacity="0.7"/>
  <circle cx="42.7" cy="141.8" r="2.3" class="tlf" opacity="0.7"/>
  <circle cx="42.7" cy="140.9" r="2.3" class="tlf" opacity="0.7"/>
  <circle cx="42.7" cy="142.4" r="2.3" class="tlf" opacity="0.7"/>
  <circle cx="42.7" cy="140.1" r="2.3" class="tlf" opacity="0.7"/>
  <circle cx="42.7" cy="138.0" r="2.3" class="tlf" opacity="0.7"/>
  <circle cx="42.7" cy="139.2" r="2.3" class="tlf" opacity="0.7"/>
  <circle cx="42.7" cy="145.1" r="2.3" class="tlf" opacity="0.7"/>
  <circle cx="42.7" cy="136.3" r="2.3" class="tlf" opacity="0.7"/>
  <circle cx="42.7" cy="135.8" r="2.3" class="tlf" opacity="0.7"/>
  <circle cx="42.7" cy="134.1" r="2.3" class="tlf" opacity="0.7"/>
  <circle cx="42.7" cy="144.2" r="2.3" class="tlf" opacity="0.7"/>
  <circle cx="42.7" cy="145.9" r="2.3" class="tlf" opacity="0.7"/>
  <circle cx="42.7" cy="136.8" r="2.3" class="tlf" opacity="0.7"/>
  <circle cx="42.7" cy="137.2" r="2.3" class="tlf" opacity="0.7"/>
  <circle cx="42.7" cy="136.4" r="2.3" class="tlf" opacity="0.7"/>
  <circle cx="42.7" cy="141.2" r="2.3" class="tlf" opacity="0.7"/>
  <circle cx="42.7" cy="139.8" r="2.3" class="tlf" opacity="0.7"/>
  <circle cx="42.7" cy="143.8" r="2.3" class="tlf" opacity="0.7"/>
  <circle cx="42.7" cy="136.5" r="2.3" class="tlf" opacity="0.7"/>
  <circle cx="42.7" cy="144.5" r="2.3" class="tlf" opacity="0.7"/>
  <circle cx="42.7" cy="139.6" r="2.3" class="tlf" opacity="0.7"/>
  <circle cx="42.7" cy="143.7" r="2.3" class="tlf" opacity="0.7"/>
  <circle cx="42.7" cy="143.6" r="2.3" class="tlf" opacity="0.7"/>
  <circle cx="42.7" cy="144.9" r="2.3" class="tlf" opacity="0.7"/>
  <circle cx="42.7" cy="140.0" r="2.3" class="tlf" opacity="0.7"/>
  <circle cx="42.7" cy="141.3" r="2.3" class="tlf" opacity="0.7"/>
  <circle cx="42.7" cy="140.7" r="2.3" class="tlf" opacity="0.7"/>
  <circle cx="42.7" cy="136.3" r="2.3" class="tlf" opacity="0.7"/>
  <circle cx="42.7" cy="140.0" r="2.3" class="tlf" opacity="0.7"/>
  <circle cx="42.7" cy="145.1" r="2.3" class="tlf" opacity="0.7"/>
  <circle cx="42.7" cy="144.9" r="2.3" class="tlf" opacity="0.7"/>
  <circle cx="42.7" cy="134.3" r="2.3" class="tlf" opacity="0.7"/>
  <circle cx="42.7" cy="142.0" r="2.3" class="tlf" opacity="0.7"/>
  <circle cx="42.7" cy="137.9" r="2.3" class="tlf" opacity="0.7"/>
  <circle cx="42.7" cy="135.6" r="2.3" class="tlf" opacity="0.7"/>
  <circle cx="42.7" cy="135.7" r="2.3" class="tlf" opacity="0.7"/>
  <circle cx="42.7" cy="143.5" r="2.3" class="tlf" opacity="0.7"/>
  <circle cx="42.7" cy="145.5" r="2.3" class="tlf" opacity="0.7"/>
  <circle cx="42.7" cy="140.2" r="2.3" class="tlf" opacity="0.7"/>
  <circle cx="42.7" cy="138.6" r="2.3" class="tlf" opacity="0.7"/>
  <circle cx="42.7" cy="140.1" r="2.3" class="tlf" opacity="0.7"/>
  <circle cx="42.7" cy="144.0" r="2.3" class="tlf" opacity="0.7"/>
  <circle cx="42.7" cy="143.0" r="2.3" class="tlf" opacity="0.7"/>
  <circle cx="42.7" cy="134.8" r="2.3" class="tlf" opacity="0.7"/>
  <circle cx="42.7" cy="136.6" r="2.3" class="tlf" opacity="0.7"/>
  <circle cx="42.7" cy="144.4" r="2.3" class="tlf" opacity="0.7"/>
  <circle cx="42.7" cy="139.9" r="2.3" class="tlf" opacity="0.7"/>
  <circle cx="42.7" cy="141.9" r="2.3" class="tlf" opacity="0.7"/>
  <circle cx="42.7" cy="143.3" r="2.3" class="tlf" opacity="0.7"/>
  <circle cx="42.7" cy="141.6" r="2.3" class="tlf" opacity="0.7"/>
  <circle cx="42.7" cy="142.8" r="2.3" class="tlf" opacity="0.7"/>
  <circle cx="42.7" cy="140.5" r="2.3" class="tlf" opacity="0.7"/>
  <circle cx="42.7" cy="136.8" r="2.3" class="tlf" opacity="0.7"/>
  <circle cx="42.7" cy="136.2" r="2.3" class="tlf" opacity="0.7"/>
  <text x="30.0" y="126.0" class="lbl">zero-crossing rate</text>
  <line x1="30.0" y1="210.0" x2="220.0" y2="210.0" class="grid"/>
  <circle cx="92.2" cy="215.9" r="2.3" class="tlf" opacity="0.7"/>
  <circle cx="93.6" cy="204.1" r="2.3" class="tlf" opacity="0.7"/>
  <circle cx="100.0" cy="212.3" r="2.3" class="tlf" opacity="0.7"/>
  <circle cx="104.5" cy="214.6" r="2.3" class="tlf" opacity="0.7"/>
  <circle cx="115.2" cy="206.8" r="2.3" class="tlf" opacity="0.7"/>
  <circle cx="98.2" cy="204.6" r="2.3" class="tlf" opacity="0.7"/>
  <circle cx="105.5" cy="208.8" r="2.3" class="tlf" opacity="0.7"/>
  <circle cx="100.8" cy="208.0" r="2.3" class="tlf" opacity="0.7"/>
  <circle cx="113.0" cy="209.5" r="2.3" class="tlf" opacity="0.7"/>
  <circle cx="105.3" cy="209.1" r="2.3" class="tlf" opacity="0.7"/>
  <circle cx="110.1" cy="215.3" r="2.3" class="tlf" opacity="0.7"/>
  <circle cx="91.5" cy="205.4" r="2.3" class="tlf" opacity="0.7"/>
  <circle cx="98.2" cy="215.3" r="2.3" class="tlf" opacity="0.7"/>
  <circle cx="93.5" cy="204.5" r="2.3" class="tlf" opacity="0.7"/>
  <circle cx="111.1" cy="215.3" r="2.3" class="tlf" opacity="0.7"/>
  <circle cx="104.7" cy="208.0" r="2.3" class="tlf" opacity="0.7"/>
  <circle cx="97.3" cy="212.7" r="2.3" class="tlf" opacity="0.7"/>
  <circle cx="96.2" cy="204.0" r="2.3" class="tlf" opacity="0.7"/>
  <circle cx="103.4" cy="209.4" r="2.3" class="tlf" opacity="0.7"/>
  <circle cx="94.3" cy="212.1" r="2.3" class="tlf" opacity="0.7"/>
  <circle cx="92.6" cy="211.5" r="2.3" class="tlf" opacity="0.7"/>
  <circle cx="103.3" cy="213.7" r="2.3" class="tlf" opacity="0.7"/>
  <circle cx="118.4" cy="205.8" r="2.3" class="tlf" opacity="0.7"/>
  <circle cx="97.8" cy="208.8" r="2.3" class="tlf" opacity="0.7"/>
  <circle cx="95.4" cy="211.4" r="2.3" class="tlf" opacity="0.7"/>
  <circle cx="90.8" cy="204.3" r="2.3" class="tlf" opacity="0.7"/>
  <circle cx="89.5" cy="214.0" r="2.3" class="tlf" opacity="0.7"/>
  <circle cx="103.7" cy="209.0" r="2.3" class="tlf" opacity="0.7"/>
  <circle cx="106.1" cy="207.0" r="2.3" class="tlf" opacity="0.7"/>
  <circle cx="99.7" cy="206.7" r="2.3" class="tlf" opacity="0.7"/>
  <circle cx="102.2" cy="211.8" r="2.3" class="tlf" opacity="0.7"/>
  <circle cx="100.5" cy="204.6" r="2.3" class="tlf" opacity="0.7"/>
  <circle cx="100.7" cy="206.9" r="2.3" class="tlf" opacity="0.7"/>
  <circle cx="88.1" cy="207.6" r="2.3" class="tlf" opacity="0.7"/>
  <circle cx="96.2" cy="207.1" r="2.3" class="tlf" opacity="0.7"/>
  <circle cx="100.5" cy="212.8" r="2.3" class="tlf" opacity="0.7"/>
  <circle cx="93.7" cy="211.1" r="2.3" class="tlf" opacity="0.7"/>
  <circle cx="96.0" cy="214.8" r="2.3" class="tlf" opacity="0.7"/>
  <circle cx="93.4" cy="212.4" r="2.3" class="tlf" opacity="0.7"/>
  <circle cx="97.1" cy="207.5" r="2.3" class="tlf" opacity="0.7"/>
  <circle cx="106.2" cy="207.9" r="2.3" class="tlf" opacity="0.7"/>
  <circle cx="96.6" cy="205.5" r="2.3" class="tlf" opacity="0.7"/>
  <circle cx="98.5" cy="206.9" r="2.3" class="tlf" opacity="0.7"/>
  <circle cx="105.9" cy="211.3" r="2.3" class="tlf" opacity="0.7"/>
  <circle cx="104.6" cy="212.8" r="2.3" class="tlf" opacity="0.7"/>
  <circle cx="112.6" cy="207.6" r="2.3" class="tlf" opacity="0.7"/>
  <circle cx="83.8" cy="208.1" r="2.3" class="tlf" opacity="0.7"/>
  <circle cx="106.2" cy="213.6" r="2.3" class="tlf" opacity="0.7"/>
  <circle cx="96.0" cy="215.5" r="2.3" class="tlf" opacity="0.7"/>
  <circle cx="100.7" cy="205.0" r="2.3" class="tlf" opacity="0.7"/>
  <circle cx="106.0" cy="204.9" r="2.3" class="tlf" opacity="0.7"/>
  <circle cx="107.9" cy="213.1" r="2.3" class="tlf" opacity="0.7"/>
  <circle cx="107.6" cy="209.9" r="2.3" class="tlf" opacity="0.7"/>
  <circle cx="100.8" cy="209.1" r="2.3" class="tlf" opacity="0.7"/>
  <circle cx="111.9" cy="211.6" r="2.3" class="tlf" opacity="0.7"/>
  <circle cx="97.5" cy="213.1" r="2.3" class="tlf" opacity="0.7"/>
  <circle cx="98.6" cy="204.8" r="2.3" class="tlf" opacity="0.7"/>
  <circle cx="105.7" cy="215.5" r="2.3" class="tlf" opacity="0.7"/>
  <circle cx="95.5" cy="215.5" r="2.3" class="tlf" opacity="0.7"/>
  <circle cx="207.3" cy="209.0" r="2.3" class="accf" opacity="0.7"/>
  <text x="30.0" y="196.0" class="lbl">spectral peak, Hz</text>
  <line x1="42.7" y1="222.0" x2="42.7" y2="226.0" class="ax"/>
  <text x="42.7" y="238.0" class="lbl" text-anchor="middle">0</text>
  <line x1="106.0" y1="222.0" x2="106.0" y2="226.0" class="ax"/>
  <text x="106.0" y="238.0" class="lbl" text-anchor="middle">1000</text>
  <line x1="169.3" y1="222.0" x2="169.3" y2="226.0" class="ax"/>
  <text x="169.3" y="238.0" class="lbl" text-anchor="middle">2000</text>
  <text x="256.0" y="24.0" class="lblb">z-score: (x − μ)/σ</text>
  <line x1="266.0" y1="70.0" x2="456.0" y2="70.0" class="grid"/>
  <circle cx="359.7" cy="69.6" r="2.3" class="tlf" opacity="0.7"/>
  <circle cx="291.8" cy="67.3" r="2.3" class="tlf" opacity="0.7"/>
  <circle cx="335.7" cy="71.0" r="2.3" class="tlf" opacity="0.7"/>
  <circle cx="321.1" cy="66.5" r="2.3" class="tlf" opacity="0.7"/>
  <circle cx="322.8" cy="70.4" r="2.3" class="tlf" opacity="0.7"/>
  <circle cx="326.3" cy="74.9" r="2.3" class="tlf" opacity="0.7"/>
  <circle cx="299.7" cy="70.1" r="2.3" class="tlf" opacity="0.7"/>
  <circle cx="326.1" cy="73.9" r="2.3" class="tlf" opacity="0.7"/>
  <circle cx="316.7" cy="66.2" r="2.3" class="tlf" opacity="0.7"/>
  <circle cx="378.6" cy="74.6" r="2.3" class="tlf" opacity="0.7"/>
  <circle cx="332.9" cy="65.5" r="2.3" class="tlf" opacity="0.7"/>
  <circle cx="324.3" cy="66.6" r="2.3" class="tlf" opacity="0.7"/>
  <circle cx="325.4" cy="72.6" r="2.3" class="tlf" opacity="0.7"/>
  <circle cx="319.7" cy="67.6" r="2.3" class="tlf" opacity="0.7"/>
  <circle cx="313.9" cy="65.4" r="2.3" class="tlf" opacity="0.7"/>
  <circle cx="323.8" cy="65.0" r="2.3" class="tlf" opacity="0.7"/>
  <circle cx="336.7" cy="73.5" r="2.3" class="tlf" opacity="0.7"/>
  <circle cx="326.0" cy="64.2" r="2.3" class="tlf" opacity="0.7"/>
  <circle cx="343.7" cy="64.7" r="2.3" class="tlf" opacity="0.7"/>
  <circle cx="326.6" cy="75.3" r="2.3" class="tlf" opacity="0.7"/>
  <circle cx="329.9" cy="73.4" r="2.3" class="tlf" opacity="0.7"/>
  <circle cx="352.4" cy="68.4" r="2.3" class="tlf" opacity="0.7"/>
  <circle cx="337.6" cy="66.3" r="2.3" class="tlf" opacity="0.7"/>
  <circle cx="322.1" cy="74.4" r="2.3" class="tlf" opacity="0.7"/>
  <circle cx="326.8" cy="73.5" r="2.3" class="tlf" opacity="0.7"/>
  <circle cx="337.5" cy="72.0" r="2.3" class="tlf" opacity="0.7"/>
  <circle cx="358.1" cy="70.4" r="2.3" class="tlf" opacity="0.7"/>
  <circle cx="325.5" cy="70.3" r="2.3" class="tlf" opacity="0.7"/>
  <circle cx="325.9" cy="75.7" r="2.3" class="tlf" opacity="0.7"/>
  <circle cx="344.3" cy="70.3" r="2.3" class="tlf" opacity="0.7"/>
  <circle cx="316.4" cy="65.0" r="2.3" class="tlf" opacity="0.7"/>
  <circle cx="325.2" cy="64.9" r="2.3" class="tlf" opacity="0.7"/>
  <circle cx="342.6" cy="71.1" r="2.3" class="tlf" opacity="0.7"/>
  <circle cx="338.1" cy="72.8" r="2.3" class="tlf" opacity="0.7"/>
  <circle cx="330.9" cy="71.5" r="2.3" class="tlf" opacity="0.7"/>
  <circle cx="339.4" cy="72.9" r="2.3" class="tlf" opacity="0.7"/>
  <circle cx="287.7" cy="67.5" r="2.3" class="tlf" opacity="0.7"/>
  <circle cx="344.6" cy="68.5" r="2.3" class="tlf" opacity="0.7"/>
  <circle cx="315.3" cy="67.2" r="2.3" class="tlf" opacity="0.7"/>
  <circle cx="304.9" cy="68.5" r="2.3" class="tlf" opacity="0.7"/>
  <circle cx="333.6" cy="67.2" r="2.3" class="tlf" opacity="0.7"/>
  <circle cx="339.9" cy="74.0" r="2.3" class="tlf" opacity="0.7"/>
  <circle cx="323.0" cy="65.8" r="2.3" class="tlf" opacity="0.7"/>
  <circle cx="313.6" cy="66.5" r="2.3" class="tlf" opacity="0.7"/>
  <circle cx="329.9" cy="72.6" r="2.3" class="tlf" opacity="0.7"/>
  <circle cx="328.8" cy="68.8" r="2.3" class="tlf" opacity="0.7"/>
  <circle cx="350.3" cy="68.1" r="2.3" class="tlf" opacity="0.7"/>
  <circle cx="340.6" cy="75.7" r="2.3" class="tlf" opacity="0.7"/>
  <circle cx="332.4" cy="74.7" r="2.3" class="tlf" opacity="0.7"/>
  <circle cx="346.0" cy="66.6" r="2.3" class="tlf" opacity="0.7"/>
  <circle cx="326.5" cy="65.9" r="2.3" class="tlf" opacity="0.7"/>
  <circle cx="315.8" cy="69.9" r="2.3" class="tlf" opacity="0.7"/>
  <circle cx="338.2" cy="70.9" r="2.3" class="tlf" opacity="0.7"/>
  <circle cx="338.1" cy="68.2" r="2.3" class="tlf" opacity="0.7"/>
  <circle cx="326.4" cy="71.1" r="2.3" class="tlf" opacity="0.7"/>
  <circle cx="318.0" cy="72.1" r="2.3" class="tlf" opacity="0.7"/>
  <circle cx="332.9" cy="73.8" r="2.3" class="tlf" opacity="0.7"/>
  <circle cx="292.7" cy="66.9" r="2.3" class="tlf" opacity="0.7"/>
  <circle cx="339.7" cy="71.7" r="2.3" class="tlf" opacity="0.7"/>
  <circle cx="336.8" cy="64.7" r="2.3" class="tlf" opacity="0.7"/>
  <line x1="266.0" y1="140.0" x2="456.0" y2="140.0" class="grid"/>
  <circle cx="306.4" cy="134.8" r="2.3" class="tlf" opacity="0.7"/>
  <circle cx="331.0" cy="134.7" r="2.3" class="tlf" opacity="0.7"/>
  <circle cx="316.2" cy="135.4" r="2.3" class="tlf" opacity="0.7"/>
  <circle cx="341.0" cy="143.4" r="2.3" class="tlf" opacity="0.7"/>
  <circle cx="300.7" cy="138.5" r="2.3" class="tlf" opacity="0.7"/>
  <circle cx="316.9" cy="139.9" r="2.3" class="tlf" opacity="0.7"/>
  <circle cx="340.3" cy="139.4" r="2.3" class="tlf" opacity="0.7"/>
  <circle cx="346.8" cy="136.5" r="2.3" class="tlf" opacity="0.7"/>
  <circle cx="298.9" cy="134.5" r="2.3" class="tlf" opacity="0.7"/>
  <circle cx="322.9" cy="136.2" r="2.3" class="tlf" opacity="0.7"/>
  <circle cx="334.8" cy="144.3" r="2.3" class="tlf" opacity="0.7"/>
  <circle cx="321.3" cy="138.1" r="2.3" class="tlf" opacity="0.7"/>
  <circle cx="353.0" cy="139.0" r="2.3" class="tlf" opacity="0.7"/>
  <circle cx="312.9" cy="137.2" r="2.3" class="tlf" opacity="0.7"/>
  <circle cx="335.2" cy="142.9" r="2.3" class="tlf" opacity="0.7"/>
  <circle cx="314.9" cy="142.4" r="2.3" class="tlf" opacity="0.7"/>
  <circle cx="350.4" cy="138.6" r="2.3" class="tlf" opacity="0.7"/>
  <circle cx="329.8" cy="140.1" r="2.3" class="tlf" opacity="0.7"/>
  <circle cx="324.7" cy="138.7" r="2.3" class="tlf" opacity="0.7"/>
  <circle cx="305.3" cy="140.9" r="2.3" class="tlf" opacity="0.7"/>
  <circle cx="354.3" cy="141.1" r="2.3" class="tlf" opacity="0.7"/>
  <circle cx="340.9" cy="140.9" r="2.3" class="tlf" opacity="0.7"/>
  <circle cx="340.9" cy="144.8" r="2.3" class="tlf" opacity="0.7"/>
  <circle cx="346.5" cy="145.4" r="2.3" class="tlf" opacity="0.7"/>
  <circle cx="335.1" cy="134.6" r="2.3" class="tlf" opacity="0.7"/>
  <circle cx="320.9" cy="138.6" r="2.3" class="tlf" opacity="0.7"/>
  <circle cx="318.5" cy="134.5" r="2.3" class="tlf" opacity="0.7"/>
  <circle cx="318.5" cy="138.5" r="2.3" class="tlf" opacity="0.7"/>
  <circle cx="349.8" cy="143.6" r="2.3" class="tlf" opacity="0.7"/>
  <circle cx="309.0" cy="142.2" r="2.3" class="tlf" opacity="0.7"/>
  <circle cx="321.5" cy="140.8" r="2.3" class="tlf" opacity="0.7"/>
  <circle cx="325.4" cy="135.0" r="2.3" class="tlf" opacity="0.7"/>
  <circle cx="333.3" cy="143.7" r="2.3" class="tlf" opacity="0.7"/>
  <circle cx="338.4" cy="141.3" r="2.3" class="tlf" opacity="0.7"/>
  <circle cx="312.1" cy="137.6" r="2.3" class="tlf" opacity="0.7"/>
  <circle cx="305.1" cy="143.4" r="2.3" class="tlf" opacity="0.7"/>
  <circle cx="330.0" cy="134.5" r="2.3" class="tlf" opacity="0.7"/>
  <circle cx="347.6" cy="136.3" r="2.3" class="tlf" opacity="0.7"/>
  <circle cx="341.0" cy="143.5" r="2.3" class="tlf" opacity="0.7"/>
  <circle cx="333.2" cy="134.6" r="2.3" class="tlf" opacity="0.7"/>
  <circle cx="325.5" cy="135.6" r="2.3" class="tlf" opacity="0.7"/>
  <circle cx="334.3" cy="140.0" r="2.3" class="tlf" opacity="0.7"/>
  <circle cx="326.6" cy="142.5" r="2.3" class="tlf" opacity="0.7"/>
  <circle cx="341.9" cy="141.1" r="2.3" class="tlf" opacity="0.7"/>
  <circle cx="318.6" cy="134.4" r="2.3" class="tlf" opacity="0.7"/>
  <circle cx="332.0" cy="137.3" r="2.3" class="tlf" opacity="0.7"/>
  <circle cx="328.5" cy="142.5" r="2.3" class="tlf" opacity="0.7"/>
  <circle cx="337.9" cy="138.2" r="2.3" class="tlf" opacity="0.7"/>
  <circle cx="333.3" cy="136.3" r="2.3" class="tlf" opacity="0.7"/>
  <circle cx="366.9" cy="134.0" r="2.3" class="tlf" opacity="0.7"/>
  <circle cx="351.7" cy="137.2" r="2.3" class="tlf" opacity="0.7"/>
  <circle cx="351.7" cy="145.2" r="2.3" class="tlf" opacity="0.7"/>
  <circle cx="300.7" cy="134.6" r="2.3" class="tlf" opacity="0.7"/>
  <circle cx="325.2" cy="140.6" r="2.3" class="tlf" opacity="0.7"/>
  <circle cx="321.3" cy="144.9" r="2.3" class="tlf" opacity="0.7"/>
  <circle cx="337.8" cy="142.4" r="2.3" class="tlf" opacity="0.7"/>
  <circle cx="297.2" cy="137.4" r="2.3" class="tlf" opacity="0.7"/>
  <circle cx="347.0" cy="141.8" r="2.3" class="tlf" opacity="0.7"/>
  <circle cx="345.5" cy="135.4" r="2.3" class="tlf" opacity="0.7"/>
  <circle cx="311.3" cy="140.0" r="2.3" class="tlf" opacity="0.7"/>
  <line x1="266.0" y1="210.0" x2="456.0" y2="210.0" class="grid"/>
  <circle cx="318.8" cy="207.2" r="2.3" class="tlf" opacity="0.7"/>
  <circle cx="320.2" cy="214.5" r="2.3" class="tlf" opacity="0.7"/>
  <circle cx="326.8" cy="214.4" r="2.3" class="tlf" opacity="0.7"/>
  <circle cx="331.5" cy="213.1" r="2.3" class="tlf" opacity="0.7"/>
  <circle cx="342.6" cy="208.5" r="2.3" class="tlf" opacity="0.7"/>
  <circle cx="325.0" cy="213.6" r="2.3" class="tlf" opacity="0.7"/>
  <circle cx="332.5" cy="215.8" r="2.3" class="tlf" opacity="0.7"/>
  <circle cx="327.7" cy="208.4" r="2.3" class="tlf" opacity="0.7"/>
  <circle cx="340.3" cy="210.3" r="2.3" class="tlf" opacity="0.7"/>
  <circle cx="332.3" cy="205.9" r="2.3" class="tlf" opacity="0.7"/>
  <circle cx="337.3" cy="205.3" r="2.3" class="tlf" opacity="0.7"/>
  <circle cx="318.0" cy="212.6" r="2.3" class="tlf" opacity="0.7"/>
  <circle cx="325.0" cy="204.7" r="2.3" class="tlf" opacity="0.7"/>
  <circle cx="320.1" cy="211.2" r="2.3" class="tlf" opacity="0.7"/>
  <circle cx="338.3" cy="205.4" r="2.3" class="tlf" opacity="0.7"/>
  <circle cx="331.7" cy="212.0" r="2.3" class="tlf" opacity="0.7"/>
  <circle cx="324.1" cy="213.0" r="2.3" class="tlf" opacity="0.7"/>
  <circle cx="322.9" cy="215.3" r="2.3" class="tlf" opacity="0.7"/>
  <circle cx="330.3" cy="208.7" r="2.3" class="tlf" opacity="0.7"/>
  <circle cx="321.0" cy="208.7" r="2.3" class="tlf" opacity="0.7"/>
  <circle cx="319.2" cy="208.8" r="2.3" class="tlf" opacity="0.7"/>
  <circle cx="330.3" cy="212.5" r="2.3" class="tlf" opacity="0.7"/>
  <circle cx="345.9" cy="213.5" r="2.3" class="tlf" opacity="0.7"/>
  <circle cx="324.6" cy="205.4" r="2.3" class="tlf" opacity="0.7"/>
  <circle cx="322.1" cy="207.9" r="2.3" class="tlf" opacity="0.7"/>
  <circle cx="317.3" cy="204.7" r="2.3" class="tlf" opacity="0.7"/>
  <circle cx="316.0" cy="206.8" r="2.3" class="tlf" opacity="0.7"/>
  <circle cx="330.6" cy="212.8" r="2.3" class="tlf" opacity="0.7"/>
  <circle cx="333.2" cy="215.2" r="2.3" class="tlf" opacity="0.7"/>
  <circle cx="326.6" cy="215.8" r="2.3" class="tlf" opacity="0.7"/>
  <circle cx="329.1" cy="204.8" r="2.3" class="tlf" opacity="0.7"/>
  <circle cx="327.4" cy="208.8" r="2.3" class="tlf" opacity="0.7"/>
  <circle cx="327.6" cy="214.5" r="2.3" class="tlf" opacity="0.7"/>
  <circle cx="314.5" cy="210.1" r="2.3" class="tlf" opacity="0.7"/>
  <circle cx="322.9" cy="208.2" r="2.3" class="tlf" opacity="0.7"/>
  <circle cx="327.4" cy="213.4" r="2.3" class="tlf" opacity="0.7"/>
  <circle cx="320.3" cy="214.4" r="2.3" class="tlf" opacity="0.7"/>
  <circle cx="322.8" cy="205.8" r="2.3" class="tlf" opacity="0.7"/>
  <circle cx="320.1" cy="210.2" r="2.3" class="tlf" opacity="0.7"/>
  <circle cx="323.9" cy="205.8" r="2.3" class="tlf" opacity="0.7"/>
  <circle cx="333.2" cy="206.2" r="2.3" class="tlf" opacity="0.7"/>
  <circle cx="323.3" cy="210.4" r="2.3" class="tlf" opacity="0.7"/>
  <circle cx="325.3" cy="207.0" r="2.3" class="tlf" opacity="0.7"/>
  <circle cx="332.9" cy="213.7" r="2.3" class="tlf" opacity="0.7"/>
  <circle cx="331.6" cy="208.4" r="2.3" class="tlf" opacity="0.7"/>
  <circle cx="339.8" cy="206.2" r="2.3" class="tlf" opacity="0.7"/>
  <circle cx="310.1" cy="211.6" r="2.3" class="tlf" opacity="0.7"/>
  <circle cx="333.2" cy="207.1" r="2.3" class="tlf" opacity="0.7"/>
  <circle cx="322.7" cy="204.8" r="2.3" class="tlf" opacity="0.7"/>
  <circle cx="327.6" cy="216.0" r="2.3" class="tlf" opacity="0.7"/>
  <circle cx="333.1" cy="206.2" r="2.3" class="tlf" opacity="0.7"/>
  <circle cx="335.0" cy="205.6" r="2.3" class="tlf" opacity="0.7"/>
  <circle cx="334.7" cy="209.8" r="2.3" class="tlf" opacity="0.7"/>
  <circle cx="327.7" cy="204.0" r="2.3" class="tlf" opacity="0.7"/>
  <circle cx="339.1" cy="213.5" r="2.3" class="tlf" opacity="0.7"/>
  <circle cx="324.3" cy="204.9" r="2.3" class="tlf" opacity="0.7"/>
  <circle cx="325.4" cy="204.5" r="2.3" class="tlf" opacity="0.7"/>
  <circle cx="332.8" cy="215.6" r="2.3" class="tlf" opacity="0.7"/>
  <circle cx="322.2" cy="210.2" r="2.3" class="tlf" opacity="0.7"/>
  <circle cx="437.8" cy="215.1" r="2.3" class="accf" opacity="0.7"/>
  <line x1="297.7" y1="222.0" x2="297.7" y2="226.0" class="ax"/>
  <text x="297.7" y="238.0" class="lbl" text-anchor="middle">−2</text>
  <line x1="329.3" y1="222.0" x2="329.3" y2="226.0" class="ax"/>
  <text x="329.3" y="238.0" class="lbl" text-anchor="middle">0</text>
  <line x1="361.0" y1="222.0" x2="361.0" y2="226.0" class="ax"/>
  <text x="361.0" y="238.0" class="lbl" text-anchor="middle">2</text>
  <line x1="424.3" y1="222.0" x2="424.3" y2="226.0" class="ax"/>
  <text x="424.3" y="238.0" class="lbl" text-anchor="middle">6</text>
  <text x="492.0" y="24.0" class="lblb">min-max: (x − min)/(max − min)</text>
  <line x1="502.0" y1="70.0" x2="692.0" y2="70.0" class="grid"/>
  <circle cx="643.2" cy="74.8" r="2.3" class="tlf" opacity="0.7"/>
  <circle cx="524.8" cy="72.8" r="2.3" class="tlf" opacity="0.7"/>
  <circle cx="601.4" cy="64.4" r="2.3" class="tlf" opacity="0.7"/>
  <circle cx="576.0" cy="71.7" r="2.3" class="tlf" opacity="0.7"/>
  <circle cx="579.0" cy="64.8" r="2.3" class="tlf" opacity="0.7"/>
  <circle cx="585.1" cy="64.1" r="2.3" class="tlf" opacity="0.7"/>
  <circle cx="538.6" cy="74.1" r="2.3" class="tlf" opacity="0.7"/>
  <circle cx="584.7" cy="67.7" r="2.3" class="tlf" opacity="0.7"/>
  <circle cx="568.4" cy="73.0" r="2.3" class="tlf" opacity="0.7"/>
  <circle cx="676.2" cy="70.4" r="2.3" class="tlf" opacity="0.7"/>
  <circle cx="596.4" cy="73.4" r="2.3" class="tlf" opacity="0.7"/>
  <circle cx="581.6" cy="71.7" r="2.3" class="tlf" opacity="0.7"/>
  <circle cx="583.4" cy="75.7" r="2.3" class="tlf" opacity="0.7"/>
  <circle cx="573.4" cy="69.7" r="2.3" class="tlf" opacity="0.7"/>
  <circle cx="563.5" cy="74.2" r="2.3" class="tlf" opacity="0.7"/>
  <circle cx="580.6" cy="73.9" r="2.3" class="tlf" opacity="0.7"/>
  <circle cx="603.0" cy="71.0" r="2.3" class="tlf" opacity="0.7"/>
  <circle cx="584.5" cy="70.1" r="2.3" class="tlf" opacity="0.7"/>
  <circle cx="615.3" cy="69.2" r="2.3" class="tlf" opacity="0.7"/>
  <circle cx="585.5" cy="71.8" r="2.3" class="tlf" opacity="0.7"/>
  <circle cx="591.3" cy="66.4" r="2.3" class="tlf" opacity="0.7"/>
  <circle cx="630.4" cy="69.3" r="2.3" class="tlf" opacity="0.7"/>
  <circle cx="604.7" cy="71.8" r="2.3" class="tlf" opacity="0.7"/>
  <circle cx="577.6" cy="67.7" r="2.3" class="tlf" opacity="0.7"/>
  <circle cx="585.9" cy="66.6" r="2.3" class="tlf" opacity="0.7"/>
  <circle cx="604.5" cy="65.3" r="2.3" class="tlf" opacity="0.7"/>
  <circle cx="640.4" cy="73.7" r="2.3" class="tlf" opacity="0.7"/>
  <circle cx="583.7" cy="74.5" r="2.3" class="tlf" opacity="0.7"/>
  <circle cx="584.4" cy="74.0" r="2.3" class="tlf" opacity="0.7"/>
  <circle cx="616.4" cy="72.5" r="2.3" class="tlf" opacity="0.7"/>
  <circle cx="567.8" cy="71.3" r="2.3" class="tlf" opacity="0.7"/>
  <circle cx="583.1" cy="64.7" r="2.3" class="tlf" opacity="0.7"/>
  <circle cx="613.3" cy="74.6" r="2.3" class="tlf" opacity="0.7"/>
  <circle cx="605.6" cy="69.7" r="2.3" class="tlf" opacity="0.7"/>
  <circle cx="593.0" cy="72.2" r="2.3" class="tlf" opacity="0.7"/>
  <circle cx="607.9" cy="65.5" r="2.3" class="tlf" opacity="0.7"/>
  <circle cx="517.8" cy="72.9" r="2.3" class="tlf" opacity="0.7"/>
  <circle cx="616.9" cy="65.8" r="2.3" class="tlf" opacity="0.7"/>
  <circle cx="565.9" cy="75.5" r="2.3" class="tlf" opacity="0.7"/>
  <circle cx="547.7" cy="72.5" r="2.3" class="tlf" opacity="0.7"/>
  <circle cx="597.7" cy="70.4" r="2.3" class="tlf" opacity="0.7"/>
  <circle cx="608.7" cy="71.8" r="2.3" class="tlf" opacity="0.7"/>
  <circle cx="579.2" cy="66.8" r="2.3" class="tlf" opacity="0.7"/>
  <circle cx="562.9" cy="70.0" r="2.3" class="tlf" opacity="0.7"/>
  <circle cx="591.3" cy="65.0" r="2.3" class="tlf" opacity="0.7"/>
  <circle cx="589.3" cy="67.4" r="2.3" class="tlf" opacity="0.7"/>
  <circle cx="626.8" cy="67.4" r="2.3" class="tlf" opacity="0.7"/>
  <circle cx="609.9" cy="66.0" r="2.3" class="tlf" opacity="0.7"/>
  <circle cx="595.6" cy="69.0" r="2.3" class="tlf" opacity="0.7"/>
  <circle cx="619.2" cy="64.8" r="2.3" class="tlf" opacity="0.7"/>
  <circle cx="585.3" cy="64.3" r="2.3" class="tlf" opacity="0.7"/>
  <circle cx="566.8" cy="68.0" r="2.3" class="tlf" opacity="0.7"/>
  <circle cx="605.7" cy="75.9" r="2.3" class="tlf" opacity="0.7"/>
  <circle cx="605.6" cy="72.7" r="2.3" class="tlf" opacity="0.7"/>
  <circle cx="585.1" cy="69.1" r="2.3" class="tlf" opacity="0.7"/>
  <circle cx="570.5" cy="66.4" r="2.3" class="tlf" opacity="0.7"/>
  <circle cx="596.5" cy="65.5" r="2.3" class="tlf" opacity="0.7"/>
  <circle cx="526.4" cy="69.0" r="2.3" class="tlf" opacity="0.7"/>
  <circle cx="608.4" cy="71.8" r="2.3" class="tlf" opacity="0.7"/>
  <circle cx="603.3" cy="73.9" r="2.3" class="tlf" opacity="0.7"/>
  <line x1="502.0" y1="140.0" x2="692.0" y2="140.0" class="grid"/>
  <circle cx="538.8" cy="139.5" r="2.3" class="tlf" opacity="0.7"/>
  <circle cx="594.6" cy="144.2" r="2.3" class="tlf" opacity="0.7"/>
  <circle cx="560.9" cy="143.7" r="2.3" class="tlf" opacity="0.7"/>
  <circle cx="617.4" cy="144.2" r="2.3" class="tlf" opacity="0.7"/>
  <circle cx="525.9" cy="138.0" r="2.3" class="tlf" opacity="0.7"/>
  <circle cx="562.6" cy="139.6" r="2.3" class="tlf" opacity="0.7"/>
  <circle cx="615.8" cy="135.9" r="2.3" class="tlf" opacity="0.7"/>
  <circle cx="630.5" cy="141.0" r="2.3" class="tlf" opacity="0.7"/>
  <circle cx="521.8" cy="134.5" r="2.3" class="tlf" opacity="0.7"/>
  <circle cx="576.2" cy="139.6" r="2.3" class="tlf" opacity="0.7"/>
  <circle cx="603.3" cy="136.0" r="2.3" class="tlf" opacity="0.7"/>
  <circle cx="572.6" cy="139.7" r="2.3" class="tlf" opacity="0.7"/>
  <circle cx="644.7" cy="136.2" r="2.3" class="tlf" opacity="0.7"/>
  <circle cx="553.5" cy="134.0" r="2.3" class="tlf" opacity="0.7"/>
  <circle cx="604.2" cy="139.1" r="2.3" class="tlf" opacity="0.7"/>
  <circle cx="558.2" cy="139.1" r="2.3" class="tlf" opacity="0.7"/>
  <circle cx="638.7" cy="140.5" r="2.3" class="tlf" opacity="0.7"/>
  <circle cx="591.8" cy="135.5" r="2.3" class="tlf" opacity="0.7"/>
  <circle cx="580.4" cy="140.0" r="2.3" class="tlf" opacity="0.7"/>
  <circle cx="536.2" cy="137.6" r="2.3" class="tlf" opacity="0.7"/>
  <circle cx="647.7" cy="135.0" r="2.3" class="tlf" opacity="0.7"/>
  <circle cx="617.2" cy="138.9" r="2.3" class="tlf" opacity="0.7"/>
  <circle cx="617.3" cy="142.0" r="2.3" class="tlf" opacity="0.7"/>
  <circle cx="629.9" cy="137.6" r="2.3" class="tlf" opacity="0.7"/>
  <circle cx="604.0" cy="142.6" r="2.3" class="tlf" opacity="0.7"/>
  <circle cx="571.6" cy="143.5" r="2.3" class="tlf" opacity="0.7"/>
  <circle cx="566.3" cy="134.2" r="2.3" class="tlf" opacity="0.7"/>
  <circle cx="566.3" cy="136.6" r="2.3" class="tlf" opacity="0.7"/>
  <circle cx="637.5" cy="137.4" r="2.3" class="tlf" opacity="0.7"/>
  <circle cx="544.7" cy="141.1" r="2.3" class="tlf" opacity="0.7"/>
  <circle cx="573.0" cy="139.8" r="2.3" class="tlf" opacity="0.7"/>
  <circle cx="582.0" cy="140.8" r="2.3" class="tlf" opacity="0.7"/>
  <circle cx="599.9" cy="134.9" r="2.3" class="tlf" opacity="0.7"/>
  <circle cx="611.4" cy="137.4" r="2.3" class="tlf" opacity="0.7"/>
  <circle cx="551.6" cy="135.9" r="2.3" class="tlf" opacity="0.7"/>
  <circle cx="535.8" cy="143.0" r="2.3" class="tlf" opacity="0.7"/>
  <circle cx="592.4" cy="142.2" r="2.3" class="tlf" opacity="0.7"/>
  <circle cx="632.3" cy="137.7" r="2.3" class="tlf" opacity="0.7"/>
  <circle cx="617.4" cy="144.5" r="2.3" class="tlf" opacity="0.7"/>
  <circle cx="599.6" cy="135.6" r="2.3" class="tlf" opacity="0.7"/>
  <circle cx="582.2" cy="134.2" r="2.3" class="tlf" opacity="0.7"/>
  <circle cx="602.2" cy="138.5" r="2.3" class="tlf" opacity="0.7"/>
  <circle cx="584.6" cy="142.0" r="2.3" class="tlf" opacity="0.7"/>
  <circle cx="619.4" cy="145.4" r="2.3" class="tlf" opacity="0.7"/>
  <circle cx="566.5" cy="140.1" r="2.3" class="tlf" opacity="0.7"/>
  <circle cx="597.0" cy="135.6" r="2.3" class="tlf" opacity="0.7"/>
  <circle cx="588.9" cy="141.2" r="2.3" class="tlf" opacity="0.7"/>
  <circle cx="610.4" cy="134.2" r="2.3" class="tlf" opacity="0.7"/>
  <circle cx="599.9" cy="143.8" r="2.3" class="tlf" opacity="0.7"/>
  <circle cx="676.2" cy="137.9" r="2.3" class="tlf" opacity="0.7"/>
  <circle cx="641.7" cy="135.2" r="2.3" class="tlf" opacity="0.7"/>
  <circle cx="641.6" cy="135.8" r="2.3" class="tlf" opacity="0.7"/>
  <circle cx="525.7" cy="143.9" r="2.3" class="tlf" opacity="0.7"/>
  <circle cx="581.4" cy="144.9" r="2.3" class="tlf" opacity="0.7"/>
  <circle cx="572.6" cy="136.2" r="2.3" class="tlf" opacity="0.7"/>
  <circle cx="610.0" cy="146.0" r="2.3" class="tlf" opacity="0.7"/>
  <circle cx="517.8" cy="144.3" r="2.3" class="tlf" opacity="0.7"/>
  <circle cx="631.1" cy="138.0" r="2.3" class="tlf" opacity="0.7"/>
  <circle cx="627.5" cy="134.6" r="2.3" class="tlf" opacity="0.7"/>
  <circle cx="549.9" cy="135.8" r="2.3" class="tlf" opacity="0.7"/>
  <line x1="502.0" y1="210.0" x2="692.0" y2="210.0" class="grid"/>
  <circle cx="528.7" cy="209.2" r="2.3" class="tlf" opacity="0.7"/>
  <circle cx="530.4" cy="206.5" r="2.3" class="tlf" opacity="0.7"/>
  <circle cx="538.6" cy="206.2" r="2.3" class="tlf" opacity="0.7"/>
  <circle cx="544.4" cy="207.3" r="2.3" class="tlf" opacity="0.7"/>
  <circle cx="558.1" cy="214.5" r="2.3" class="tlf" opacity="0.7"/>
  <circle cx="536.3" cy="204.4" r="2.3" class="tlf" opacity="0.7"/>
  <circle cx="545.7" cy="215.1" r="2.3" class="tlf" opacity="0.7"/>
  <circle cx="539.7" cy="209.4" r="2.3" class="tlf" opacity="0.7"/>
  <circle cx="555.3" cy="212.9" r="2.3" class="tlf" opacity="0.7"/>
  <circle cx="545.4" cy="210.1" r="2.3" class="tlf" opacity="0.7"/>
  <circle cx="551.5" cy="215.3" r="2.3" class="tlf" opacity="0.7"/>
  <circle cx="527.7" cy="206.2" r="2.3" class="tlf" opacity="0.7"/>
  <circle cx="536.3" cy="207.1" r="2.3" class="tlf" opacity="0.7"/>
  <circle cx="530.3" cy="210.1" r="2.3" class="tlf" opacity="0.7"/>
  <circle cx="552.9" cy="210.1" r="2.3" class="tlf" opacity="0.7"/>
  <circle cx="544.6" cy="208.0" r="2.3" class="tlf" opacity="0.7"/>
  <circle cx="535.2" cy="207.7" r="2.3" class="tlf" opacity="0.7"/>
  <circle cx="533.8" cy="205.1" r="2.3" class="tlf" opacity="0.7"/>
  <circle cx="542.9" cy="210.0" r="2.3" class="tlf" opacity="0.7"/>
  <circle cx="531.4" cy="214.0" r="2.3" class="tlf" opacity="0.7"/>
  <circle cx="529.1" cy="214.4" r="2.3" class="tlf" opacity="0.7"/>
  <circle cx="542.9" cy="209.0" r="2.3" class="tlf" opacity="0.7"/>
  <circle cx="562.2" cy="215.8" r="2.3" class="tlf" opacity="0.7"/>
  <circle cx="535.8" cy="215.6" r="2.3" class="tlf" opacity="0.7"/>
  <circle cx="532.8" cy="207.8" r="2.3" class="tlf" opacity="0.7"/>
  <circle cx="526.8" cy="205.4" r="2.3" class="tlf" opacity="0.7"/>
  <circle cx="525.2" cy="214.0" r="2.3" class="tlf" opacity="0.7"/>
  <circle cx="543.3" cy="215.3" r="2.3" class="tlf" opacity="0.7"/>
  <circle cx="546.5" cy="211.8" r="2.3" class="tlf" opacity="0.7"/>
  <circle cx="538.3" cy="215.6" r="2.3" class="tlf" opacity="0.7"/>
  <circle cx="541.4" cy="209.7" r="2.3" class="tlf" opacity="0.7"/>
  <circle cx="539.3" cy="210.3" r="2.3" class="tlf" opacity="0.7"/>
  <circle cx="539.5" cy="204.9" r="2.3" class="tlf" opacity="0.7"/>
  <circle cx="523.3" cy="208.4" r="2.3" class="tlf" opacity="0.7"/>
  <circle cx="533.7" cy="215.1" r="2.3" class="tlf" opacity="0.7"/>
  <circle cx="539.3" cy="205.2" r="2.3" class="tlf" opacity="0.7"/>
  <circle cx="530.6" cy="205.6" r="2.3" class="tlf" opacity="0.7"/>
  <circle cx="533.6" cy="204.4" r="2.3" class="tlf" opacity="0.7"/>
  <circle cx="530.2" cy="209.9" r="2.3" class="tlf" opacity="0.7"/>
  <circle cx="534.9" cy="211.2" r="2.3" class="tlf" opacity="0.7"/>
  <circle cx="546.5" cy="210.4" r="2.3" class="tlf" opacity="0.7"/>
  <circle cx="534.2" cy="214.5" r="2.3" class="tlf" opacity="0.7"/>
  <circle cx="536.7" cy="212.2" r="2.3" class="tlf" opacity="0.7"/>
  <circle cx="546.1" cy="211.6" r="2.3" class="tlf" opacity="0.7"/>
  <circle cx="544.5" cy="211.2" r="2.3" class="tlf" opacity="0.7"/>
  <circle cx="554.7" cy="210.1" r="2.3" class="tlf" opacity="0.7"/>
  <circle cx="517.8" cy="204.9" r="2.3" class="tlf" opacity="0.7"/>
  <circle cx="546.5" cy="205.2" r="2.3" class="tlf" opacity="0.7"/>
  <circle cx="533.5" cy="211.7" r="2.3" class="tlf" opacity="0.7"/>
  <circle cx="539.5" cy="206.5" r="2.3" class="tlf" opacity="0.7"/>
  <circle cx="546.4" cy="209.0" r="2.3" class="tlf" opacity="0.7"/>
  <circle cx="548.7" cy="211.8" r="2.3" class="tlf" opacity="0.7"/>
  <circle cx="548.3" cy="211.2" r="2.3" class="tlf" opacity="0.7"/>
  <circle cx="539.7" cy="206.9" r="2.3" class="tlf" opacity="0.7"/>
  <circle cx="553.9" cy="207.2" r="2.3" class="tlf" opacity="0.7"/>
  <circle cx="535.4" cy="205.7" r="2.3" class="tlf" opacity="0.7"/>
  <circle cx="536.8" cy="212.0" r="2.3" class="tlf" opacity="0.7"/>
  <circle cx="546.0" cy="212.6" r="2.3" class="tlf" opacity="0.7"/>
  <circle cx="532.8" cy="205.6" r="2.3" class="tlf" opacity="0.7"/>
  <circle cx="676.2" cy="207.2" r="2.3" class="accf" opacity="0.7"/>
  <line x1="517.8" y1="222.0" x2="517.8" y2="226.0" class="ax"/>
  <text x="517.8" y="238.0" class="lbl" text-anchor="middle">0</text>
  <line x1="597.0" y1="222.0" x2="597.0" y2="226.0" class="ax"/>
  <text x="597.0" y="238.0" class="lbl" text-anchor="middle">.5</text>
  <line x1="676.2" y1="222.0" x2="676.2" y2="226.0" class="ax"/>
  <text x="676.2" y="238.0" class="lbl" text-anchor="middle">1</text>
  <text x="20.0" y="270.0" class="lbl">Raw: features 1 and 2 vanish next to feature 3 — a distance-based model</text>
  <text x="20.0" y="284.0" class="lbl">(k-NN, RBF-SVM, k-means) effectively ignores them.</text>
  <text x="20.0" y="304.0" class="lbl">Min-max: one outlier (copper) squeezes the other 59 values of feature 3 into</text>
  <text x="20.0" y="318.0" class="lbl">a fifth of the range. Fit all scaling statistics on the training set only.</text>
</svg>