<svg xmlns="http://www.w3.org/2000/svg" viewBox="0 0 720 320" role="img" aria-label="Two elongated parallel Gaussian classes: the principal component direction runs along the elongation and projecting onto it mixes the classes, while the linear discriminant direction separates them; histograms of both projections are shown"><style>text{fill:#14181A}svg{color:#14181A;font-family:"IBM Plex Sans Condensed",Arial,sans-serif}.acc{stroke:#A6512A;fill:none}.accf{fill:#A6512A}.tl{stroke:#255C61;fill:none}.tlf{fill:#255C61}.ax{stroke:currentColor;stroke-width:1.1;fill:none}.grid{stroke:currentColor;stroke-width:.6;opacity:.22;fill:none}.ser{fill:none;stroke:currentColor;stroke-width:1.8}.lbl{font-family:"IBM Plex Mono",monospace;font-size:10.5px;fill:currentColor;opacity:.75}.lblb{font-family:"IBM Plex Sans Condensed",Arial,sans-serif;font-size:12px;font-weight:600;fill:currentColor}.fillsoft{fill:currentColor;opacity:.14}text.accf{fill:#A6512A;opacity:1}text.tlf{fill:#255C61;opacity:1}</style>
  <rect x="30.0" y="30.0" width="300.0" height="260.0" class="ax" fill="none" opacity="0.4"/>
  <circle cx="181.1" cy="147.7" r="2.4" class="accf" opacity="0.6"/>
  <circle cx="168.4" cy="176.9" r="2.4" class="accf" opacity="0.6"/>
  <circle cx="232.1" cy="100.5" r="2.4" class="accf" opacity="0.6"/>
  <circle cx="155.8" cy="146.3" r="2.4" class="accf" opacity="0.6"/>
  <circle cx="184.6" cy="146.1" r="2.4" class="accf" opacity="0.6"/>
  <circle cx="209.0" cy="130.0" r="2.4" class="accf" opacity="0.6"/>
  <circle cx="163.3" cy="160.4" r="2.4" class="accf" opacity="0.6"/>
  <circle cx="188.8" cy="138.6" r="2.4" class="accf" opacity="0.6"/>
  <circle cx="194.6" cy="141.3" r="2.4" class="accf" opacity="0.6"/>
  <circle cx="180.6" cy="152.2" r="2.4" class="accf" opacity="0.6"/>
  <circle cx="201.6" cy="128.3" r="2.4" class="accf" opacity="0.6"/>
  <circle cx="181.7" cy="136.5" r="2.4" class="accf" opacity="0.6"/>
  <circle cx="130.5" cy="159.9" r="2.4" class="accf" opacity="0.6"/>
  <circle cx="255.2" cy="120.3" r="2.4" class="accf" opacity="0.6"/>
  <circle cx="115.3" cy="194.8" r="2.4" class="accf" opacity="0.6"/>
  <circle cx="201.8" cy="128.8" r="2.4" class="accf" opacity="0.6"/>
  <circle cx="207.6" cy="118.7" r="2.4" class="accf" opacity="0.6"/>
  <circle cx="177.9" cy="140.0" r="2.4" class="accf" opacity="0.6"/>
  <circle cx="161.0" cy="142.4" r="2.4" class="accf" opacity="0.6"/>
  <circle cx="132.1" cy="173.1" r="2.4" class="accf" opacity="0.6"/>
  <circle cx="171.6" cy="125.8" r="2.4" class="accf" opacity="0.6"/>
  <circle cx="148.7" cy="171.7" r="2.4" class="accf" opacity="0.6"/>
  <circle cx="146.0" cy="149.3" r="2.4" class="accf" opacity="0.6"/>
  <circle cx="156.4" cy="139.6" r="2.4" class="accf" opacity="0.6"/>
  <circle cx="97.1" cy="174.1" r="2.4" class="accf" opacity="0.6"/>
  <circle cx="216.6" cy="138.8" r="2.4" class="accf" opacity="0.6"/>
  <circle cx="171.2" cy="132.8" r="2.4" class="accf" opacity="0.6"/>
  <circle cx="169.8" cy="136.0" r="2.4" class="accf" opacity="0.6"/>
  <circle cx="257.5" cy="96.8" r="2.4" class="accf" opacity="0.6"/>
  <circle cx="165.0" cy="159.3" r="2.4" class="accf" opacity="0.6"/>
  <circle cx="196.3" cy="135.6" r="2.4" class="accf" opacity="0.6"/>
  <circle cx="165.5" cy="151.3" r="2.4" class="accf" opacity="0.6"/>
  <circle cx="200.7" cy="143.3" r="2.4" class="accf" opacity="0.6"/>
  <circle cx="127.2" cy="199.2" r="2.4" class="accf" opacity="0.6"/>
  <circle cx="215.2" cy="122.1" r="2.4" class="accf" opacity="0.6"/>
  <circle cx="227.1" cy="116.7" r="2.4" class="accf" opacity="0.6"/>
  <circle cx="141.9" cy="157.3" r="2.4" class="accf" opacity="0.6"/>
  <circle cx="174.9" cy="159.5" r="2.4" class="accf" opacity="0.6"/>
  <circle cx="130.3" cy="148.6" r="2.4" class="accf" opacity="0.6"/>
  <circle cx="182.5" cy="135.9" r="2.4" class="accf" opacity="0.6"/>
  <circle cx="164.8" cy="158.5" r="2.4" class="accf" opacity="0.6"/>
  <circle cx="204.8" cy="129.9" r="2.4" class="accf" opacity="0.6"/>
  <circle cx="144.3" cy="163.1" r="2.4" class="accf" opacity="0.6"/>
  <circle cx="137.3" cy="163.2" r="2.4" class="accf" opacity="0.6"/>
  <circle cx="217.2" cy="131.7" r="2.4" class="accf" opacity="0.6"/>
  <circle cx="227.4" cy="124.2" r="2.4" class="accf" opacity="0.6"/>
  <circle cx="181.3" cy="151.2" r="2.4" class="accf" opacity="0.6"/>
  <circle cx="163.1" cy="150.8" r="2.4" class="accf" opacity="0.6"/>
  <circle cx="159.0" cy="161.7" r="2.4" class="accf" opacity="0.6"/>
  <circle cx="150.6" cy="167.7" r="2.4" class="accf" opacity="0.6"/>
  <circle cx="115.1" cy="180.5" r="2.4" class="accf" opacity="0.6"/>
  <circle cx="181.8" cy="130.6" r="2.4" class="accf" opacity="0.6"/>
  <circle cx="183.2" cy="111.8" r="2.4" class="accf" opacity="0.6"/>
  <circle cx="185.5" cy="144.5" r="2.4" class="accf" opacity="0.6"/>
  <circle cx="245.5" cy="118.7" r="2.4" class="accf" opacity="0.6"/>
  <circle cx="211.8" cy="136.0" r="2.4" class="accf" opacity="0.6"/>
  <circle cx="194.2" cy="157.3" r="2.4" class="accf" opacity="0.6"/>
  <circle cx="205.4" cy="130.2" r="2.4" class="accf" opacity="0.6"/>
  <circle cx="127.7" cy="151.1" r="2.4" class="accf" opacity="0.6"/>
  <circle cx="199.5" cy="131.0" r="2.4" class="accf" opacity="0.6"/>
  <circle cx="144.3" cy="162.0" r="2.4" class="accf" opacity="0.6"/>
  <circle cx="161.9" cy="143.5" r="2.4" class="accf" opacity="0.6"/>
  <circle cx="204.2" cy="136.8" r="2.4" class="accf" opacity="0.6"/>
  <circle cx="153.9" cy="162.5" r="2.4" class="accf" opacity="0.6"/>
  <circle cx="124.8" cy="179.0" r="2.4" class="accf" opacity="0.6"/>
  <circle cx="164.7" cy="142.4" r="2.4" class="accf" opacity="0.6"/>
  <circle cx="224.1" cy="127.6" r="2.4" class="accf" opacity="0.6"/>
  <circle cx="194.0" cy="139.7" r="2.4" class="accf" opacity="0.6"/>
  <circle cx="248.1" cy="105.7" r="2.4" class="accf" opacity="0.6"/>
  <circle cx="194.6" cy="145.1" r="2.4" class="accf" opacity="0.6"/>
  <circle cx="140.7" cy="161.2" r="2.4" class="accf" opacity="0.6"/>
  <circle cx="155.7" cy="151.3" r="2.4" class="accf" opacity="0.6"/>
  <circle cx="110.8" cy="172.0" r="2.4" class="accf" opacity="0.6"/>
  <circle cx="130.0" cy="149.3" r="2.4" class="accf" opacity="0.6"/>
  <circle cx="155.5" cy="142.7" r="2.4" class="accf" opacity="0.6"/>
  <circle cx="118.1" cy="170.8" r="2.4" class="accf" opacity="0.6"/>
  <circle cx="141.3" cy="168.9" r="2.4" class="accf" opacity="0.6"/>
  <circle cx="174.0" cy="149.1" r="2.4" class="accf" opacity="0.6"/>
  <circle cx="177.6" cy="134.8" r="2.4" class="accf" opacity="0.6"/>
  <circle cx="196.0" cy="134.5" r="2.4" class="accf" opacity="0.6"/>
  <circle cx="125.4" cy="181.2" r="2.4" class="accf" opacity="0.6"/>
  <circle cx="174.8" cy="169.7" r="2.4" class="accf" opacity="0.6"/>
  <circle cx="200.4" cy="133.9" r="2.4" class="accf" opacity="0.6"/>
  <circle cx="157.6" cy="143.3" r="2.4" class="accf" opacity="0.6"/>
  <circle cx="195.0" cy="131.4" r="2.4" class="accf" opacity="0.6"/>
  <circle cx="133.2" cy="164.0" r="2.4" class="accf" opacity="0.6"/>
  <circle cx="188.6" cy="147.8" r="2.4" class="accf" opacity="0.6"/>
  <circle cx="207.4" cy="121.4" r="2.4" class="accf" opacity="0.6"/>
  <circle cx="98.5" cy="185.0" r="2.4" class="accf" opacity="0.6"/>
  <circle cx="119.4" cy="161.9" r="2.4" class="accf" opacity="0.6"/>
  <circle cx="206.6" cy="140.5" r="2.4" class="accf" opacity="0.6"/>
  <circle cx="138.5" cy="163.5" r="2.4" class="accf" opacity="0.6"/>
  <circle cx="155.2" cy="137.9" r="2.4" class="accf" opacity="0.6"/>
  <circle cx="200.2" cy="134.5" r="2.4" class="accf" opacity="0.6"/>
  <circle cx="202.8" cy="153.4" r="2.4" class="accf" opacity="0.6"/>
  <circle cx="178.7" cy="132.8" r="2.4" class="accf" opacity="0.6"/>
  <circle cx="168.4" cy="156.7" r="2.4" class="accf" opacity="0.6"/>
  <circle cx="182.7" cy="117.9" r="2.4" class="accf" opacity="0.6"/>
  <circle cx="184.6" cy="152.7" r="2.4" class="accf" opacity="0.6"/>
  <circle cx="233.9" cy="134.7" r="2.4" class="accf" opacity="0.6"/>
  <circle cx="192.9" cy="141.9" r="2.4" class="accf" opacity="0.6"/>
  <circle cx="209.9" cy="135.8" r="2.4" class="accf" opacity="0.6"/>
  <circle cx="218.7" cy="117.6" r="2.4" class="accf" opacity="0.6"/>
  <circle cx="117.7" cy="199.0" r="2.4" class="accf" opacity="0.6"/>
  <circle cx="153.5" cy="141.5" r="2.4" class="accf" opacity="0.6"/>
  <circle cx="175.9" cy="143.6" r="2.4" class="accf" opacity="0.6"/>
  <circle cx="159.2" cy="144.9" r="2.4" class="accf" opacity="0.6"/>
  <circle cx="184.0" cy="136.7" r="2.4" class="accf" opacity="0.6"/>
  <circle cx="129.5" cy="155.8" r="2.4" class="accf" opacity="0.6"/>
  <circle cx="228.1" cy="131.2" r="2.4" class="accf" opacity="0.6"/>
  <circle cx="252.6" cy="94.3" r="2.4" class="accf" opacity="0.6"/>
  <circle cx="163.0" cy="173.6" r="2.4" class="accf" opacity="0.6"/>
  <circle cx="192.9" cy="128.6" r="2.4" class="accf" opacity="0.6"/>
  <circle cx="158.4" cy="174.7" r="2.4" class="accf" opacity="0.6"/>
  <circle cx="215.8" cy="129.6" r="2.4" class="accf" opacity="0.6"/>
  <circle cx="140.2" cy="130.7" r="2.4" class="accf" opacity="0.6"/>
  <circle cx="245.1" cy="95.7" r="2.4" class="accf" opacity="0.6"/>
  <circle cx="151.6" cy="150.0" r="2.4" class="accf" opacity="0.6"/>
  <circle cx="87.1" cy="191.4" r="2.4" class="accf" opacity="0.6"/>
  <circle cx="149.9" cy="173.5" r="2.4" class="accf" opacity="0.6"/>
  <circle cx="110.7" cy="173.7" r="2.4" class="accf" opacity="0.6"/>
  <circle cx="174.0" cy="143.5" r="2.4" class="accf" opacity="0.6"/>
  <circle cx="206.7" cy="137.5" r="2.4" class="accf" opacity="0.6"/>
  <circle cx="134.8" cy="187.4" r="2.4" class="accf" opacity="0.6"/>
  <circle cx="155.5" cy="146.6" r="2.4" class="accf" opacity="0.6"/>
  <circle cx="162.9" cy="144.0" r="2.4" class="accf" opacity="0.6"/>
  <circle cx="130.4" cy="174.6" r="2.4" class="accf" opacity="0.6"/>
  <circle cx="149.5" cy="173.3" r="2.4" class="accf" opacity="0.6"/>
  <circle cx="235.7" cy="101.9" r="2.4" class="accf" opacity="0.6"/>
  <circle cx="147.3" cy="168.9" r="2.4" class="accf" opacity="0.6"/>
  <circle cx="176.5" cy="160.8" r="2.4" class="accf" opacity="0.6"/>
  <circle cx="193.9" cy="149.6" r="2.4" class="accf" opacity="0.6"/>
  <circle cx="163.0" cy="163.4" r="2.4" class="accf" opacity="0.6"/>
  <circle cx="160.4" cy="168.3" r="2.4" class="accf" opacity="0.6"/>
  <circle cx="118.4" cy="186.9" r="2.4" class="accf" opacity="0.6"/>
  <circle cx="148.0" cy="163.0" r="2.4" class="accf" opacity="0.6"/>
  <circle cx="166.6" cy="131.7" r="2.4" class="accf" opacity="0.6"/>
  <circle cx="202.6" cy="132.8" r="2.4" class="accf" opacity="0.6"/>
  <circle cx="201.6" cy="138.4" r="2.4" class="accf" opacity="0.6"/>
  <circle cx="222.1" cy="112.9" r="2.4" class="accf" opacity="0.6"/>
  <circle cx="118.0" cy="167.1" r="2.4" class="accf" opacity="0.6"/>
  <circle cx="214.8" cy="154.5" r="2.4" class="accf" opacity="0.6"/>
  <circle cx="146.4" cy="166.0" r="2.4" class="accf" opacity="0.6"/>
  <circle cx="105.9" cy="194.9" r="2.4" class="accf" opacity="0.6"/>
  <circle cx="134.2" cy="161.2" r="2.4" class="accf" opacity="0.6"/>
  <circle cx="169.7" cy="117.2" r="2.4" class="accf" opacity="0.6"/>
  <circle cx="151.4" cy="144.3" r="2.4" class="accf" opacity="0.6"/>
  <circle cx="173.1" cy="142.8" r="2.4" class="accf" opacity="0.6"/>
  <circle cx="138.3" cy="187.1" r="2.4" class="accf" opacity="0.6"/>
  <circle cx="139.6" cy="155.3" r="2.4" class="accf" opacity="0.6"/>
  <circle cx="226.8" cy="109.7" r="2.4" class="accf" opacity="0.6"/>
  <circle cx="194.0" cy="144.3" r="2.4" class="accf" opacity="0.6"/>
  <circle cx="221.3" cy="104.0" r="2.4" class="accf" opacity="0.6"/>
  <circle cx="152.2" cy="157.8" r="2.4" class="accf" opacity="0.6"/>
  <circle cx="127.7" cy="153.5" r="2.4" class="accf" opacity="0.6"/>
  <circle cx="186.9" cy="139.5" r="2.4" class="accf" opacity="0.6"/>
  <circle cx="184.3" cy="134.7" r="2.4" class="accf" opacity="0.6"/>
  <circle cx="162.5" cy="166.1" r="2.4" class="accf" opacity="0.6"/>
  <circle cx="132.9" cy="188.0" r="2.4" class="accf" opacity="0.6"/>
  <circle cx="177.6" cy="117.7" r="2.4" class="accf" opacity="0.6"/>
  <circle cx="125.3" cy="206.0" r="2.4" class="tlf" opacity="0.6"/>
  <circle cx="208.4" cy="173.9" r="2.4" class="tlf" opacity="0.6"/>
  <circle cx="201.4" cy="179.0" r="2.4" class="tlf" opacity="0.6"/>
  <circle cx="235.5" cy="154.6" r="2.4" class="tlf" opacity="0.6"/>
  <circle cx="188.8" cy="165.1" r="2.4" class="tlf" opacity="0.6"/>
  <circle cx="181.5" cy="197.9" r="2.4" class="tlf" opacity="0.6"/>
  <circle cx="165.2" cy="177.0" r="2.4" class="tlf" opacity="0.6"/>
  <circle cx="184.2" cy="172.9" r="2.4" class="tlf" opacity="0.6"/>
  <circle cx="148.0" cy="193.6" r="2.4" class="tlf" opacity="0.6"/>
  <circle cx="215.1" cy="158.4" r="2.4" class="tlf" opacity="0.6"/>
  <circle cx="259.7" cy="137.0" r="2.4" class="tlf" opacity="0.6"/>
  <circle cx="158.1" cy="208.6" r="2.4" class="tlf" opacity="0.6"/>
  <circle cx="231.1" cy="150.7" r="2.4" class="tlf" opacity="0.6"/>
  <circle cx="223.4" cy="148.9" r="2.4" class="tlf" opacity="0.6"/>
  <circle cx="242.0" cy="129.4" r="2.4" class="tlf" opacity="0.6"/>
  <circle cx="173.2" cy="178.3" r="2.4" class="tlf" opacity="0.6"/>
  <circle cx="234.5" cy="162.6" r="2.4" class="tlf" opacity="0.6"/>
  <circle cx="235.9" cy="133.4" r="2.4" class="tlf" opacity="0.6"/>
  <circle cx="225.6" cy="155.4" r="2.4" class="tlf" opacity="0.6"/>
  <circle cx="205.1" cy="177.2" r="2.4" class="tlf" opacity="0.6"/>
  <circle cx="193.5" cy="177.3" r="2.4" class="tlf" opacity="0.6"/>
  <circle cx="194.1" cy="175.9" r="2.4" class="tlf" opacity="0.6"/>
  <circle cx="193.1" cy="157.0" r="2.4" class="tlf" opacity="0.6"/>
  <circle cx="135.8" cy="191.1" r="2.4" class="tlf" opacity="0.6"/>
  <circle cx="125.9" cy="232.4" r="2.4" class="tlf" opacity="0.6"/>
  <circle cx="184.0" cy="175.6" r="2.4" class="tlf" opacity="0.6"/>
  <circle cx="212.9" cy="179.2" r="2.4" class="tlf" opacity="0.6"/>
  <circle cx="185.6" cy="173.3" r="2.4" class="tlf" opacity="0.6"/>
  <circle cx="235.1" cy="149.1" r="2.4" class="tlf" opacity="0.6"/>
  <circle cx="212.7" cy="171.4" r="2.4" class="tlf" opacity="0.6"/>
  <circle cx="183.8" cy="181.0" r="2.4" class="tlf" opacity="0.6"/>
  <circle cx="219.2" cy="168.0" r="2.4" class="tlf" opacity="0.6"/>
  <circle cx="155.0" cy="184.8" r="2.4" class="tlf" opacity="0.6"/>
  <circle cx="252.4" cy="134.0" r="2.4" class="tlf" opacity="0.6"/>
  <circle cx="201.3" cy="170.3" r="2.4" class="tlf" opacity="0.6"/>
  <circle cx="225.8" cy="146.6" r="2.4" class="tlf" opacity="0.6"/>
  <circle cx="250.6" cy="135.6" r="2.4" class="tlf" opacity="0.6"/>
  <circle cx="156.4" cy="197.3" r="2.4" class="tlf" opacity="0.6"/>
  <circle cx="158.3" cy="204.2" r="2.4" class="tlf" opacity="0.6"/>
  <circle cx="231.0" cy="140.7" r="2.4" class="tlf" opacity="0.6"/>
  <circle cx="134.2" cy="182.0" r="2.4" class="tlf" opacity="0.6"/>
  <circle cx="202.2" cy="176.9" r="2.4" class="tlf" opacity="0.6"/>
  <circle cx="203.0" cy="166.1" r="2.4" class="tlf" opacity="0.6"/>
  <circle cx="169.6" cy="206.1" r="2.4" class="tlf" opacity="0.6"/>
  <circle cx="188.4" cy="169.9" r="2.4" class="tlf" opacity="0.6"/>
  <circle cx="90.9" cy="219.8" r="2.4" class="tlf" opacity="0.6"/>
  <circle cx="213.5" cy="165.1" r="2.4" class="tlf" opacity="0.6"/>
  <circle cx="194.0" cy="173.5" r="2.4" class="tlf" opacity="0.6"/>
  <circle cx="159.5" cy="193.2" r="2.4" class="tlf" opacity="0.6"/>
  <circle cx="245.3" cy="159.2" r="2.4" class="tlf" opacity="0.6"/>
  <circle cx="196.3" cy="166.8" r="2.4" class="tlf" opacity="0.6"/>
  <circle cx="164.6" cy="191.3" r="2.4" class="tlf" opacity="0.6"/>
  <circle cx="141.2" cy="208.9" r="2.4" class="tlf" opacity="0.6"/>
  <circle cx="187.4" cy="170.0" r="2.4" class="tlf" opacity="0.6"/>
  <circle cx="140.4" cy="163.8" r="2.4" class="tlf" opacity="0.6"/>
  <circle cx="166.9" cy="183.5" r="2.4" class="tlf" opacity="0.6"/>
  <circle cx="182.0" cy="181.4" r="2.4" class="tlf" opacity="0.6"/>
  <circle cx="238.7" cy="151.5" r="2.4" class="tlf" opacity="0.6"/>
  <circle cx="231.9" cy="136.3" r="2.4" class="tlf" opacity="0.6"/>
  <circle cx="144.9" cy="184.9" r="2.4" class="tlf" opacity="0.6"/>
  <circle cx="151.1" cy="161.7" r="2.4" class="tlf" opacity="0.6"/>
  <circle cx="178.9" cy="189.4" r="2.4" class="tlf" opacity="0.6"/>
  <circle cx="124.6" cy="223.0" r="2.4" class="tlf" opacity="0.6"/>
  <circle cx="172.0" cy="193.8" r="2.4" class="tlf" opacity="0.6"/>
  <circle cx="146.7" cy="204.0" r="2.4" class="tlf" opacity="0.6"/>
  <circle cx="173.7" cy="164.4" r="2.4" class="tlf" opacity="0.6"/>
  <circle cx="128.5" cy="212.2" r="2.4" class="tlf" opacity="0.6"/>
  <circle cx="160.8" cy="205.9" r="2.4" class="tlf" opacity="0.6"/>
  <circle cx="146.4" cy="206.7" r="2.4" class="tlf" opacity="0.6"/>
  <circle cx="215.8" cy="160.6" r="2.4" class="tlf" opacity="0.6"/>
  <circle cx="165.7" cy="178.5" r="2.4" class="tlf" opacity="0.6"/>
  <circle cx="199.9" cy="169.6" r="2.4" class="tlf" opacity="0.6"/>
  <circle cx="206.7" cy="173.0" r="2.4" class="tlf" opacity="0.6"/>
  <circle cx="209.2" cy="156.5" r="2.4" class="tlf" opacity="0.6"/>
  <circle cx="179.3" cy="192.4" r="2.4" class="tlf" opacity="0.6"/>
  <circle cx="243.9" cy="142.0" r="2.4" class="tlf" opacity="0.6"/>
  <circle cx="303.9" cy="118.1" r="2.4" class="tlf" opacity="0.6"/>
  <circle cx="222.0" cy="160.1" r="2.4" class="tlf" opacity="0.6"/>
  <circle cx="193.7" cy="160.7" r="2.4" class="tlf" opacity="0.6"/>
  <circle cx="159.6" cy="190.1" r="2.4" class="tlf" opacity="0.6"/>
  <circle cx="193.8" cy="169.0" r="2.4" class="tlf" opacity="0.6"/>
  <circle cx="205.4" cy="152.1" r="2.4" class="tlf" opacity="0.6"/>
  <circle cx="217.8" cy="154.2" r="2.4" class="tlf" opacity="0.6"/>
  <circle cx="181.3" cy="190.3" r="2.4" class="tlf" opacity="0.6"/>
  <circle cx="164.0" cy="192.7" r="2.4" class="tlf" opacity="0.6"/>
  <circle cx="215.4" cy="162.9" r="2.4" class="tlf" opacity="0.6"/>
  <circle cx="139.7" cy="192.5" r="2.4" class="tlf" opacity="0.6"/>
  <circle cx="162.7" cy="196.2" r="2.4" class="tlf" opacity="0.6"/>
  <circle cx="177.8" cy="173.5" r="2.4" class="tlf" opacity="0.6"/>
  <circle cx="105.2" cy="231.5" r="2.4" class="tlf" opacity="0.6"/>
  <circle cx="196.7" cy="173.0" r="2.4" class="tlf" opacity="0.6"/>
  <circle cx="159.3" cy="195.4" r="2.4" class="tlf" opacity="0.6"/>
  <circle cx="241.7" cy="149.6" r="2.4" class="tlf" opacity="0.6"/>
  <circle cx="210.8" cy="151.9" r="2.4" class="tlf" opacity="0.6"/>
  <circle cx="169.7" cy="178.3" r="2.4" class="tlf" opacity="0.6"/>
  <circle cx="174.9" cy="187.7" r="2.4" class="tlf" opacity="0.6"/>
  <circle cx="142.8" cy="187.9" r="2.4" class="tlf" opacity="0.6"/>
  <circle cx="176.5" cy="186.1" r="2.4" class="tlf" opacity="0.6"/>
  <circle cx="138.1" cy="179.6" r="2.4" class="tlf" opacity="0.6"/>
  <circle cx="216.4" cy="159.6" r="2.4" class="tlf" opacity="0.6"/>
  <circle cx="170.4" cy="200.8" r="2.4" class="tlf" opacity="0.6"/>
  <circle cx="197.8" cy="164.8" r="2.4" class="tlf" opacity="0.6"/>
  <circle cx="131.0" cy="191.0" r="2.4" class="tlf" opacity="0.6"/>
  <circle cx="221.7" cy="166.4" r="2.4" class="tlf" opacity="0.6"/>
  <circle cx="170.1" cy="188.2" r="2.4" class="tlf" opacity="0.6"/>
  <circle cx="195.1" cy="171.3" r="2.4" class="tlf" opacity="0.6"/>
  <circle cx="120.9" cy="192.8" r="2.4" class="tlf" opacity="0.6"/>
  <circle cx="193.9" cy="155.6" r="2.4" class="tlf" opacity="0.6"/>
  <circle cx="235.6" cy="150.0" r="2.4" class="tlf" opacity="0.6"/>
  <circle cx="197.4" cy="159.8" r="2.4" class="tlf" opacity="0.6"/>
  <circle cx="217.6" cy="159.3" r="2.4" class="tlf" opacity="0.6"/>
  <circle cx="165.6" cy="185.3" r="2.4" class="tlf" opacity="0.6"/>
  <circle cx="161.7" cy="194.2" r="2.4" class="tlf" opacity="0.6"/>
  <circle cx="113.4" cy="213.1" r="2.4" class="tlf" opacity="0.6"/>
  <circle cx="153.4" cy="198.8" r="2.4" class="tlf" opacity="0.6"/>
  <circle cx="185.0" cy="171.5" r="2.4" class="tlf" opacity="0.6"/>
  <circle cx="256.9" cy="133.6" r="2.4" class="tlf" opacity="0.6"/>
  <circle cx="135.9" cy="200.3" r="2.4" class="tlf" opacity="0.6"/>
  <circle cx="164.6" cy="181.6" r="2.4" class="tlf" opacity="0.6"/>
  <circle cx="166.7" cy="193.3" r="2.4" class="tlf" opacity="0.6"/>
  <circle cx="172.8" cy="189.1" r="2.4" class="tlf" opacity="0.6"/>
  <circle cx="124.7" cy="215.7" r="2.4" class="tlf" opacity="0.6"/>
  <circle cx="182.0" cy="162.8" r="2.4" class="tlf" opacity="0.6"/>
  <circle cx="179.5" cy="182.4" r="2.4" class="tlf" opacity="0.6"/>
  <circle cx="207.1" cy="156.8" r="2.4" class="tlf" opacity="0.6"/>
  <circle cx="244.4" cy="136.0" r="2.4" class="tlf" opacity="0.6"/>
  <circle cx="181.2" cy="161.6" r="2.4" class="tlf" opacity="0.6"/>
  <circle cx="247.1" cy="146.9" r="2.4" class="tlf" opacity="0.6"/>
  <circle cx="202.6" cy="185.1" r="2.4" class="tlf" opacity="0.6"/>
  <circle cx="179.4" cy="188.4" r="2.4" class="tlf" opacity="0.6"/>
  <circle cx="183.0" cy="181.8" r="2.4" class="tlf" opacity="0.6"/>
  <circle cx="182.9" cy="177.5" r="2.4" class="tlf" opacity="0.6"/>
  <circle cx="205.5" cy="161.3" r="2.4" class="tlf" opacity="0.6"/>
  <circle cx="174.2" cy="196.0" r="2.4" class="tlf" opacity="0.6"/>
  <circle cx="226.9" cy="135.9" r="2.4" class="tlf" opacity="0.6"/>
  <circle cx="169.0" cy="177.3" r="2.4" class="tlf" opacity="0.6"/>
  <circle cx="140.0" cy="217.8" r="2.4" class="tlf" opacity="0.6"/>
  <circle cx="171.3" cy="165.4" r="2.4" class="tlf" opacity="0.6"/>
  <circle cx="154.1" cy="201.6" r="2.4" class="tlf" opacity="0.6"/>
  <circle cx="256.9" cy="158.1" r="2.4" class="tlf" opacity="0.6"/>
  <circle cx="209.8" cy="155.9" r="2.4" class="tlf" opacity="0.6"/>
  <circle cx="180.0" cy="175.7" r="2.4" class="tlf" opacity="0.6"/>
  <circle cx="290.4" cy="130.9" r="2.4" class="tlf" opacity="0.6"/>
  <circle cx="178.1" cy="181.7" r="2.4" class="tlf" opacity="0.6"/>
  <circle cx="169.7" cy="199.1" r="2.4" class="tlf" opacity="0.6"/>
  <circle cx="246.0" cy="139.4" r="2.4" class="tlf" opacity="0.6"/>
  <circle cx="127.3" cy="214.7" r="2.4" class="tlf" opacity="0.6"/>
  <circle cx="201.4" cy="161.5" r="2.4" class="tlf" opacity="0.6"/>
  <circle cx="136.0" cy="202.9" r="2.4" class="tlf" opacity="0.6"/>
  <circle cx="196.1" cy="164.5" r="2.4" class="tlf" opacity="0.6"/>
  <circle cx="212.0" cy="181.7" r="2.4" class="tlf" opacity="0.6"/>
  <circle cx="255.4" cy="134.4" r="2.4" class="tlf" opacity="0.6"/>
  <circle cx="240.8" cy="111.5" r="2.4" class="tlf" opacity="0.6"/>
  <circle cx="188.6" cy="187.5" r="2.4" class="tlf" opacity="0.6"/>
  <circle cx="221.1" cy="157.6" r="2.4" class="tlf" opacity="0.6"/>
  <circle cx="177.0" cy="191.5" r="2.4" class="tlf" opacity="0.6"/>
  <circle cx="252.7" cy="143.5" r="2.4" class="tlf" opacity="0.6"/>
  <circle cx="139.2" cy="205.2" r="2.4" class="tlf" opacity="0.6"/>
  <circle cx="145.1" cy="195.0" r="2.4" class="tlf" opacity="0.6"/>
  <circle cx="178.2" cy="191.1" r="2.4" class="tlf" opacity="0.6"/>
  <line x1="276.8" y1="105.4" x2="83.2" y2="214.6" class="ser" stroke-width="2" stroke-dasharray="6 3"/>
  <text x="282.8" y="109.4" class="lblb">PCA direction</text>
  <line x1="234.8" y1="256.4" x2="125.2" y2="63.6" class="acc" stroke-width="2"/>
  <text x="131.2" y="67.6" class="lblb">LDA direction</text>
  <text x="370.0" y="38.0" class="lblb">projection on the PCA direction — classes overlap</text>
  <rect x="370.0" y="130.0" width="10.0" height="0.0" class="accf" opacity="0.55"/>
  <rect x="370.0" y="125.2" width="10.0" height="4.8" class="tlf" opacity="0.55"/>
  <rect x="381.0" y="130.0" width="10.0" height="0.0" class="accf" opacity="0.55"/>
  <rect x="381.0" y="130.0" width="10.0" height="0.0" class="tlf" opacity="0.55"/>
  <rect x="392.0" y="130.0" width="10.0" height="0.0" class="accf" opacity="0.55"/>
  <rect x="392.0" y="125.2" width="10.0" height="4.8" class="tlf" opacity="0.55"/>
  <rect x="403.0" y="125.2" width="10.0" height="4.8" class="accf" opacity="0.55"/>
  <rect x="403.0" y="130.0" width="10.0" height="0.0" class="tlf" opacity="0.55"/>
  <rect x="414.0" y="125.2" width="10.0" height="4.8" class="accf" opacity="0.55"/>
  <rect x="414.0" y="130.0" width="10.0" height="0.0" class="tlf" opacity="0.55"/>
  <rect x="425.0" y="115.8" width="10.0" height="14.2" class="accf" opacity="0.55"/>
  <rect x="425.0" y="130.0" width="10.0" height="0.0" class="tlf" opacity="0.55"/>
  <rect x="436.0" y="115.8" width="10.0" height="14.2" class="accf" opacity="0.55"/>
  <rect x="436.0" y="106.2" width="10.0" height="23.8" class="tlf" opacity="0.55"/>
  <rect x="447.0" y="130.0" width="10.0" height="0.0" class="accf" opacity="0.55"/>
  <rect x="447.0" y="101.5" width="10.0" height="28.5" class="tlf" opacity="0.55"/>
  <rect x="458.0" y="101.5" width="10.0" height="28.5" class="accf" opacity="0.55"/>
  <rect x="458.0" y="111.0" width="10.0" height="19.0" class="tlf" opacity="0.55"/>
  <rect x="469.0" y="115.8" width="10.0" height="14.2" class="accf" opacity="0.55"/>
  <rect x="469.0" y="92.0" width="10.0" height="38.0" class="tlf" opacity="0.55"/>
  <rect x="480.0" y="101.5" width="10.0" height="28.5" class="accf" opacity="0.55"/>
  <rect x="480.0" y="111.0" width="10.0" height="19.0" class="tlf" opacity="0.55"/>
  <rect x="491.0" y="92.0" width="10.0" height="38.0" class="accf" opacity="0.55"/>
  <rect x="491.0" y="111.0" width="10.0" height="19.0" class="tlf" opacity="0.55"/>
  <rect x="502.0" y="73.0" width="10.0" height="57.0" class="accf" opacity="0.55"/>
  <rect x="502.0" y="77.8" width="10.0" height="52.2" class="tlf" opacity="0.55"/>
  <rect x="513.0" y="82.5" width="10.0" height="47.5" class="accf" opacity="0.55"/>
  <rect x="513.0" y="106.2" width="10.0" height="23.8" class="tlf" opacity="0.55"/>
  <rect x="524.0" y="63.5" width="10.0" height="66.5" class="accf" opacity="0.55"/>
  <rect x="524.0" y="54.0" width="10.0" height="76.0" class="tlf" opacity="0.55"/>
  <rect x="535.0" y="77.8" width="10.0" height="52.2" class="accf" opacity="0.55"/>
  <rect x="535.0" y="87.2" width="10.0" height="42.8" class="tlf" opacity="0.55"/>
  <rect x="546.0" y="101.5" width="10.0" height="28.5" class="accf" opacity="0.55"/>
  <rect x="546.0" y="92.0" width="10.0" height="38.0" class="tlf" opacity="0.55"/>
  <rect x="557.0" y="63.5" width="10.0" height="66.5" class="accf" opacity="0.55"/>
  <rect x="557.0" y="77.8" width="10.0" height="52.2" class="tlf" opacity="0.55"/>
  <rect x="568.0" y="73.0" width="10.0" height="57.0" class="accf" opacity="0.55"/>
  <rect x="568.0" y="68.2" width="10.0" height="61.8" class="tlf" opacity="0.55"/>
  <rect x="579.0" y="101.5" width="10.0" height="28.5" class="accf" opacity="0.55"/>
  <rect x="579.0" y="73.0" width="10.0" height="57.0" class="tlf" opacity="0.55"/>
  <rect x="590.0" y="73.0" width="10.0" height="57.0" class="accf" opacity="0.55"/>
  <rect x="590.0" y="82.5" width="10.0" height="47.5" class="tlf" opacity="0.55"/>
  <rect x="601.0" y="77.8" width="10.0" height="52.2" class="accf" opacity="0.55"/>
  <rect x="601.0" y="96.8" width="10.0" height="33.2" class="tlf" opacity="0.55"/>
  <rect x="612.0" y="115.8" width="10.0" height="14.2" class="accf" opacity="0.55"/>
  <rect x="612.0" y="96.8" width="10.0" height="33.2" class="tlf" opacity="0.55"/>
  <rect x="623.0" y="96.8" width="10.0" height="33.2" class="accf" opacity="0.55"/>
  <rect x="623.0" y="96.8" width="10.0" height="33.2" class="tlf" opacity="0.55"/>
  <rect x="634.0" y="106.2" width="10.0" height="23.8" class="accf" opacity="0.55"/>
  <rect x="634.0" y="120.5" width="10.0" height="9.5" class="tlf" opacity="0.55"/>
  <rect x="645.0" y="120.5" width="10.0" height="9.5" class="accf" opacity="0.55"/>
  <rect x="645.0" y="115.8" width="10.0" height="14.2" class="tlf" opacity="0.55"/>
  <rect x="656.0" y="115.8" width="10.0" height="14.2" class="accf" opacity="0.55"/>
  <rect x="656.0" y="115.8" width="10.0" height="14.2" class="tlf" opacity="0.55"/>
  <rect x="667.0" y="130.0" width="10.0" height="0.0" class="accf" opacity="0.55"/>
  <rect x="667.0" y="125.2" width="10.0" height="4.8" class="tlf" opacity="0.55"/>
  <rect x="678.0" y="125.2" width="10.0" height="4.8" class="accf" opacity="0.55"/>
  <rect x="678.0" y="130.0" width="10.0" height="0.0" class="tlf" opacity="0.55"/>
  <rect x="689.0" y="130.0" width="10.0" height="0.0" class="accf" opacity="0.55"/>
  <rect x="689.0" y="120.5" width="10.0" height="9.5" class="tlf" opacity="0.55"/>
  <line x1="370.0" y1="130.0" x2="700.0" y2="130.0" class="ax"/>
  <text x="370.0" y="168.0" class="lblb">projection on the LDA direction — classes separate</text>
  <rect x="370.0" y="260.0" width="10.0" height="0.0" class="accf" opacity="0.55"/>
  <rect x="370.0" y="246.8" width="10.0" height="13.2" class="tlf" opacity="0.55"/>
  <rect x="381.0" y="260.0" width="10.0" height="0.0" class="accf" opacity="0.55"/>
  <rect x="381.0" y="243.5" width="10.0" height="16.5" class="tlf" opacity="0.55"/>
  <rect x="392.0" y="260.0" width="10.0" height="0.0" class="accf" opacity="0.55"/>
  <rect x="392.0" y="236.9" width="10.0" height="23.1" class="tlf" opacity="0.55"/>
  <rect x="403.0" y="260.0" width="10.0" height="0.0" class="accf" opacity="0.55"/>
  <rect x="403.0" y="217.0" width="10.0" height="43.0" class="tlf" opacity="0.55"/>
  <rect x="414.0" y="260.0" width="10.0" height="0.0" class="accf" opacity="0.55"/>
  <rect x="414.0" y="223.7" width="10.0" height="36.3" class="tlf" opacity="0.55"/>
  <rect x="425.0" y="260.0" width="10.0" height="0.0" class="accf" opacity="0.55"/>
  <rect x="425.0" y="184.0" width="10.0" height="76.0" class="tlf" opacity="0.55"/>
  <rect x="436.0" y="260.0" width="10.0" height="0.0" class="accf" opacity="0.55"/>
  <rect x="436.0" y="190.6" width="10.0" height="69.4" class="tlf" opacity="0.55"/>
  <rect x="447.0" y="260.0" width="10.0" height="0.0" class="accf" opacity="0.55"/>
  <rect x="447.0" y="223.7" width="10.0" height="36.3" class="tlf" opacity="0.55"/>
  <rect x="458.0" y="256.7" width="10.0" height="3.3" class="accf" opacity="0.55"/>
  <rect x="458.0" y="187.3" width="10.0" height="72.7" class="tlf" opacity="0.55"/>
  <rect x="469.0" y="260.0" width="10.0" height="0.0" class="accf" opacity="0.55"/>
  <rect x="469.0" y="220.3" width="10.0" height="39.7" class="tlf" opacity="0.55"/>
  <rect x="480.0" y="253.4" width="10.0" height="6.6" class="accf" opacity="0.55"/>
  <rect x="480.0" y="227.0" width="10.0" height="33.0" class="tlf" opacity="0.55"/>
  <rect x="491.0" y="246.8" width="10.0" height="13.2" class="accf" opacity="0.55"/>
  <rect x="491.0" y="240.2" width="10.0" height="19.8" class="tlf" opacity="0.55"/>
  <rect x="502.0" y="236.9" width="10.0" height="23.1" class="accf" opacity="0.55"/>
  <rect x="502.0" y="236.9" width="10.0" height="23.1" class="tlf" opacity="0.55"/>
  <rect x="513.0" y="246.8" width="10.0" height="13.2" class="accf" opacity="0.55"/>
  <rect x="513.0" y="250.1" width="10.0" height="9.9" class="tlf" opacity="0.55"/>
  <rect x="524.0" y="230.3" width="10.0" height="29.7" class="accf" opacity="0.55"/>
  <rect x="524.0" y="253.4" width="10.0" height="6.6" class="tlf" opacity="0.55"/>
  <rect x="535.0" y="213.7" width="10.0" height="46.3" class="accf" opacity="0.55"/>
  <rect x="535.0" y="260.0" width="10.0" height="0.0" class="tlf" opacity="0.55"/>
  <rect x="546.0" y="210.4" width="10.0" height="49.6" class="accf" opacity="0.55"/>
  <rect x="546.0" y="260.0" width="10.0" height="0.0" class="tlf" opacity="0.55"/>
  <rect x="557.0" y="217.0" width="10.0" height="43.0" class="accf" opacity="0.55"/>
  <rect x="557.0" y="260.0" width="10.0" height="0.0" class="tlf" opacity="0.55"/>
  <rect x="568.0" y="213.7" width="10.0" height="46.3" class="accf" opacity="0.55"/>
  <rect x="568.0" y="253.4" width="10.0" height="6.6" class="tlf" opacity="0.55"/>
  <rect x="579.0" y="220.3" width="10.0" height="39.7" class="accf" opacity="0.55"/>
  <rect x="579.0" y="256.7" width="10.0" height="3.3" class="tlf" opacity="0.55"/>
  <rect x="590.0" y="210.4" width="10.0" height="49.6" class="accf" opacity="0.55"/>
  <rect x="590.0" y="260.0" width="10.0" height="0.0" class="tlf" opacity="0.55"/>
  <rect x="601.0" y="213.7" width="10.0" height="46.3" class="accf" opacity="0.55"/>
  <rect x="601.0" y="260.0" width="10.0" height="0.0" class="tlf" opacity="0.55"/>
  <rect x="612.0" y="213.7" width="10.0" height="46.3" class="accf" opacity="0.55"/>
  <rect x="612.0" y="260.0" width="10.0" height="0.0" class="tlf" opacity="0.55"/>
  <rect x="623.0" y="233.6" width="10.0" height="26.4" class="accf" opacity="0.55"/>
  <rect x="623.0" y="260.0" width="10.0" height="0.0" class="tlf" opacity="0.55"/>
  <rect x="634.0" y="243.5" width="10.0" height="16.5" class="accf" opacity="0.55"/>
  <rect x="634.0" y="260.0" width="10.0" height="0.0" class="tlf" opacity="0.55"/>
  <rect x="645.0" y="250.1" width="10.0" height="9.9" class="accf" opacity="0.55"/>
  <rect x="645.0" y="260.0" width="10.0" height="0.0" class="tlf" opacity="0.55"/>
  <rect x="656.0" y="253.4" width="10.0" height="6.6" class="accf" opacity="0.55"/>
  <rect x="656.0" y="260.0" width="10.0" height="0.0" class="tlf" opacity="0.55"/>
  <rect x="667.0" y="256.7" width="10.0" height="3.3" class="accf" opacity="0.55"/>
  <rect x="667.0" y="260.0" width="10.0" height="0.0" class="tlf" opacity="0.55"/>
  <rect x="678.0" y="253.4" width="10.0" height="6.6" class="accf" opacity="0.55"/>
  <rect x="678.0" y="260.0" width="10.0" height="0.0" class="tlf" opacity="0.55"/>
  <rect x="689.0" y="256.7" width="10.0" height="3.3" class="accf" opacity="0.55"/>
  <rect x="689.0" y="260.0" width="10.0" height="0.0" class="tlf" opacity="0.55"/>
  <line x1="370.0" y1="260.0" x2="700.0" y2="260.0" class="ax"/>
  <text x="370.0" y="312.0" class="lbl">PCA ignores labels; LDA uses them (supervised).</text>
</svg>